<svg width="56" height="56" viewBox="0 0 56 56" fill="none" xmlns="http://www.w3.org/2000/svg">
<g clip-path="url(#clip0)">
<path d="M42.2041 18.4882H13.796C13.1641 18.4882 12.6519 19.0004 12.6519 19.6323V43.4548C12.6519 44.0867 13.1641 44.599 13.796 44.599H18.8605V52.6272C18.8605 54.4899 20.3705 56.0001 22.2334 56.0001C24.0961 56.0001 25.6062 54.4901 25.6062 52.6272V44.599H30.3237V52.6272C30.3237 54.4899 31.8337 56.0001 33.6965 56.0001C35.5592 56.0001 37.0694 54.4901 37.0694 52.6272V44.599H42.2042C42.8361 44.599 43.3484 44.0867 43.3484 43.4548V19.6323C43.3482 19.0004 42.836 18.4882 42.2041 18.4882Z" fill="#AAC148"/>
<path d="M7.84233 18.4825C5.97963 18.4825 4.46948 19.9926 4.46948 21.8554V35.5546C4.46948 37.4173 5.97949 38.9274 7.84233 38.9274C9.70504 38.9274 11.2152 37.4174 11.2152 35.5546V21.8554C11.215 19.9927 9.70504 18.4825 7.84233 18.4825Z" fill="#AAC148"/>
<path d="M48.1578 18.4825C46.2951 18.4825 44.7849 19.9926 44.7849 21.8554V35.5546C44.7849 37.4173 46.2949 38.9274 48.1578 38.9274C50.0205 38.9274 51.5306 37.4174 51.5306 35.5546V21.8554C51.5306 19.9927 50.0206 18.4825 48.1578 18.4825Z" fill="#AAC148"/>
<path d="M14.026 16.8174H41.9071C42.6345 16.8174 43.177 16.1474 43.0276 15.4355C42.1053 11.0399 39.3068 7.33564 35.5094 5.19574L37.8929 0.895197C38.0542 0.604039 37.949 0.23711 37.6578 0.0758072C37.366 -0.0859019 36.9996 0.0196902 36.8383 0.310848L34.4368 4.64378C32.4699 3.731 30.2778 3.22121 27.9666 3.22121C25.6552 3.22121 23.4631 3.731 21.4962 4.64378L19.0947 0.310712C18.9332 0.0194191 18.5663 -0.0856308 18.2753 0.0756716C17.9841 0.236974 17.8789 0.603903 18.0402 0.895061L20.4237 5.1956C16.6263 7.33564 13.8278 11.0398 12.9055 15.4355C12.756 16.1474 13.2985 16.8174 14.026 16.8174ZM36.286 10.4082C36.286 11.1242 35.7055 11.7048 34.9894 11.7048C34.2735 11.7048 33.6929 11.1243 33.6929 10.4082C33.6929 9.69228 34.2733 9.11173 34.9894 9.11173C35.7055 9.11173 36.286 9.69228 36.286 10.4082ZM20.9434 9.11173C21.6594 9.11173 22.2399 9.69215 22.2399 10.4082C22.2399 11.1242 21.6595 11.7048 20.9434 11.7048C20.2274 11.7048 19.6469 11.1243 19.6469 10.4082C19.6469 9.69228 20.2273 9.11173 20.9434 9.11173Z" fill="#AAC148"/>
</g>
<defs>
<clipPath id="clip0">
<rect width="56" height="56" fill="white"/>
</clipPath>
</defs>
</svg>
