<svg width="145" height="17" viewBox="0 0 145 17" fill="none" xmlns="http://www.w3.org/2000/svg">
<rect width="145" height="17" fill="black"/>
<path d="M6.43 8.7C6.41 7.76 6.74667 6.95333 7.44 6.28C8.13333 5.60667 8.95333 5.27667 9.9 5.29C10.5 5.29 11.05 5.42667 11.55 5.7C12.05 5.97333 12.4433 6.34333 12.73 6.81L11.93 7.4C11.4433 6.64 10.77 6.26 9.91 6.26C9.23 6.26 8.66333 6.49333 8.21 6.96C7.75667 7.42 7.53 8 7.53 8.7C7.53 9.4 7.75667 9.98333 8.21 10.45C8.66333 10.91 9.23 11.14 9.91 11.14C10.77 11.14 11.4433 10.76 11.93 10L12.73 10.59C12.4433 11.0633 12.05 11.4367 11.55 11.71C11.0567 11.9767 10.5067 12.11 9.9 12.11C8.95333 12.1233 8.13333 11.7933 7.44 11.12C6.74667 10.4467 6.41 9.64 6.43 8.7ZM13.5203 9.54C13.507 8.84 13.757 8.23667 14.2703 7.73C14.7903 7.21667 15.4036 6.96667 16.1103 6.98C16.8236 6.96667 17.4403 7.21667 17.9603 7.73C18.4803 8.24333 18.7336 8.84667 18.7203 9.54C18.7336 10.24 18.4803 10.8467 17.9603 11.36C17.4403 11.8733 16.8236 12.1233 16.1103 12.11C15.4036 12.1233 14.7903 11.8733 14.2703 11.36C13.757 10.84 13.507 10.2333 13.5203 9.54ZM17.6403 9.55C17.6403 9.09667 17.4936 8.71667 17.2003 8.41C16.907 8.09667 16.547 7.94 16.1203 7.94C15.687 7.94 15.3236 8.09667 15.0303 8.41C14.737 8.71667 14.5903 9.09667 14.5903 9.55C14.5903 10.0033 14.7336 10.3833 15.0203 10.69C15.3136 10.99 15.677 11.14 16.1103 11.14C16.5436 11.14 16.907 10.9867 17.2003 10.68C17.4936 10.3733 17.6403 9.99667 17.6403 9.55ZM24.1341 10.51C24.1341 10.95 23.9707 11.31 23.6441 11.59C23.3241 11.8633 22.9041 12 22.3841 12H19.9341V7.09H22.0941C22.5807 7.09 22.9774 7.21333 23.2841 7.46C23.5907 7.70667 23.7441 8.03 23.7441 8.43C23.7441 8.82333 23.5941 9.13 23.2941 9.35C23.8541 9.56333 24.1341 9.95 24.1341 10.51ZM20.9641 7.94V9.05H22.0541C22.5207 9.05 22.7541 8.86333 22.7541 8.49C22.7541 8.12333 22.5207 7.94 22.0541 7.94H20.9641ZM23.1341 10.49C23.1341 10.2967 23.0574 10.1433 22.9041 10.03C22.7574 9.91667 22.5507 9.86 22.2841 9.86H20.9641V11.16H22.2841C22.5441 11.16 22.7507 11.1 22.9041 10.98C23.0574 10.8533 23.1341 10.69 23.1341 10.49ZM25.4223 12V6.98H25.7923L28.1023 9.65L30.4223 6.98H30.7723V12H29.7223V9.16L28.2823 10.83H27.9123L26.4823 9.17V12H25.4223ZM36.7269 9.89H33.0669C33.1335 10.29 33.3102 10.6067 33.5969 10.84C33.8902 11.0667 34.2469 11.18 34.6669 11.18C35.1869 11.18 35.6635 10.9867 36.0969 10.6L36.5969 11.32C36.0435 11.8467 35.3902 12.11 34.6369 12.11C33.8902 12.11 33.2635 11.8667 32.7569 11.38C32.2502 10.8867 31.9969 10.2767 31.9969 9.55C31.9835 8.84333 32.2302 8.23667 32.7369 7.73C33.2435 7.21667 33.8435 6.96667 34.5369 6.98C35.1835 6.98 35.7235 7.19667 36.1569 7.63C36.5902 8.05667 36.8069 8.59 36.8069 9.23C36.8069 9.42333 36.7802 9.64333 36.7269 9.89ZM33.0869 9.07H35.7569C35.7502 8.70333 35.6269 8.41333 35.3869 8.2C35.1469 7.98 34.8502 7.87 34.4969 7.87C34.1502 7.87 33.8469 7.98 33.5869 8.2C33.3335 8.41333 33.1669 8.70333 33.0869 9.07ZM37.7 9.54C37.6867 8.84 37.94 8.23667 38.46 7.73C38.98 7.21667 39.5933 6.96667 40.3 6.98C41.22 6.98 41.91 7.36 42.37 8.12L41.63 8.7C41.2833 8.2 40.8433 7.95 40.31 7.95C39.87 7.95 39.5033 8.10333 39.21 8.41C38.9167 8.71667 38.77 9.09333 38.77 9.54C38.77 9.99333 38.9167 10.3733 39.21 10.68C39.5033 10.9867 39.87 11.14 40.31 11.14C40.83 11.14 41.27 10.8933 41.63 10.4L42.37 10.97C42.15 11.33 41.86 11.61 41.5 11.81C41.14 12.01 40.74 12.11 40.3 12.11C39.5733 12.11 38.9567 11.86 38.45 11.36C37.95 10.86 37.7 10.2533 37.7 9.54ZM44.5176 12V8H42.9376V7.09H47.1476V8H45.5676V12H44.5176ZM48.0884 12V7.09H49.1484V8.97H51.2584V7.09H52.3084V12H51.2584V9.88H49.1484V12H48.0884ZM53.5301 9.54C53.5167 8.84 53.7667 8.23667 54.2801 7.73C54.8001 7.21667 55.4134 6.96667 56.1201 6.98C56.8334 6.96667 57.4501 7.21667 57.9701 7.73C58.4901 8.24333 58.7434 8.84667 58.7301 9.54C58.7434 10.24 58.4901 10.8467 57.9701 11.36C57.4501 11.8733 56.8334 12.1233 56.1201 12.11C55.4134 12.1233 54.8001 11.8733 54.2801 11.36C53.7667 10.84 53.5167 10.2333 53.5301 9.54ZM57.6501 9.55C57.6501 9.09667 57.5034 8.71667 57.2101 8.41C56.9167 8.09667 56.5567 7.94 56.1301 7.94C55.6967 7.94 55.3334 8.09667 55.0401 8.41C54.7467 8.71667 54.6001 9.09667 54.6001 9.55C54.6001 10.0033 54.7434 10.3833 55.0301 10.69C55.3234 10.99 55.6867 11.14 56.1201 11.14C56.5534 11.14 56.9167 10.9867 57.2101 10.68C57.5034 10.3733 57.6501 9.99667 57.6501 9.55ZM62.4266 9.54C62.4132 8.84 62.6666 8.23667 63.1866 7.73C63.7066 7.21667 64.3199 6.96667 65.0266 6.98C65.9466 6.98 66.6366 7.36 67.0966 8.12L66.3566 8.7C66.0099 8.2 65.5699 7.95 65.0366 7.95C64.5966 7.95 64.2299 8.10333 63.9366 8.41C63.6432 8.71667 63.4966 9.09333 63.4966 9.54C63.4966 9.99333 63.6432 10.3733 63.9366 10.68C64.2299 10.9867 64.5966 11.14 65.0366 11.14C65.5566 11.14 65.9966 10.8933 66.3566 10.4L67.0966 10.97C66.8766 11.33 66.5866 11.61 66.2266 11.81C65.8666 12.01 65.4666 12.11 65.0266 12.11C64.2999 12.11 63.6832 11.86 63.1766 11.36C62.6766 10.86 62.4266 10.2533 62.4266 9.54Z" fill="white"/>
<path d="M128.609 3L123.336 3V6.02495L128.609 6.02495V3Z" fill="white"/>
<path d="M102.247 3L99.1943 3V13.9998H102.247V3Z" fill="white"/>
<path d="M107.797 3L104.745 3V13.9998H107.797V3Z" fill="white"/>
<path d="M128.609 10.7001L123.336 10.7001V14L128.609 14V10.7001Z" fill="white"/>
<path fill-rule="evenodd" clip-rule="evenodd" d="M128.609 3V5.94406L124.813 13.7248H123.336V10.7807L127.133 3L128.609 3Z" fill="white"/>
<path d="M99.1943 3L97.5293 3V6.02495H99.1943V3Z" fill="#EF276E"/>
<path d="M103.912 3L102.247 3V6.02495H103.912V3Z" fill="#5393D3"/>
<path fill-rule="evenodd" clip-rule="evenodd" d="M139.154 3L129.441 13.9798L139.093 13.9998L139.154 3Z" fill="#6BB5FF"/>
<path fill-rule="evenodd" clip-rule="evenodd" d="M127.028 3L128.609 3.00587V6.02495L125.557 6.02201L127.028 3Z" fill="#EF276E"/>
<path fill-rule="evenodd" clip-rule="evenodd" d="M126.389 10.7001L123.336 10.703V14H124.934L126.389 10.7001Z" fill="#EF276E"/>
<path d="M122.504 3L119.452 3V13.9998H122.504V3Z" fill="white"/>
<path d="M85.32 3L82.2676 3V13.9998H85.32V3Z" fill="white"/>
<path fill-rule="evenodd" clip-rule="evenodd" d="M85.6312 10.1499C87.6049 10.1499 89.205 8.54931 89.205 6.57493C89.205 4.60055 87.6049 3 85.6312 3C83.6574 3 82.2676 4.60055 82.2676 6.57493C82.2676 8.54931 83.6574 10.1499 85.6312 10.1499Z" fill="white"/>
<path fill-rule="evenodd" clip-rule="evenodd" d="M85.32 3C83.672 3.28099 82.4208 4.61075 82.2676 6.24417V6.89573C82.4164 8.53298 83.6686 9.86787 85.32 10.1499V3V3Z" fill="#C8DC30"/>
<path fill-rule="evenodd" clip-rule="evenodd" d="M90.0371 3L93.0896 3V13.9998H90.0371V3Z" fill="white"/>
<path fill-rule="evenodd" clip-rule="evenodd" d="M93.4007 10.1499C95.3744 10.1499 96.9745 8.54931 96.9745 6.57493C96.9745 4.60055 95.3744 3 93.4007 3C91.4269 3 90.0371 4.60055 90.0371 6.57493C90.0371 8.54931 91.4269 10.1499 93.4007 10.1499Z" fill="white"/>
<path fill-rule="evenodd" clip-rule="evenodd" d="M90.0371 6.15435V6.99551C90.186 8.53298 91.4381 9.86787 93.0896 10.1499V3C91.4415 3.28099 90.1903 4.61075 90.0371 6.15435Z" fill="#C8DC30"/>
<path fill-rule="evenodd" clip-rule="evenodd" d="M118.619 3L108.907 13.9998L118.619 13.9998V3Z" fill="#6BB5FF"/>
<path fill-rule="evenodd" clip-rule="evenodd" d="M72 13.9998L76.9641 3L81.7123 13.9998L72 13.9998Z" fill="white"/>
<path fill-rule="evenodd" clip-rule="evenodd" d="M108.907 3L118.619 13.9998L108.907 13.9998V3Z" fill="white"/>
<path fill-rule="evenodd" clip-rule="evenodd" d="M129.441 3L139.154 13.9998L129.441 13.9998V3Z" fill="white"/>
</svg>
