<svg width="52" height="52" viewBox="0 0 52 52" fill="none" xmlns="http://www.w3.org/2000/svg">
<path fill-rule="evenodd" clip-rule="evenodd" d="M6.88969 16.6581C6.39874 17.9488 5.97688 19.2481 5.62979 20.5435C4.74119 23.8598 4.34185 27.152 4.52237 30.2138C4.61256 31.7433 4.84761 33.2149 5.23851 34.6043C5.23852 34.6043 5.23852 34.6043 5.23853 34.6043C6.49058 39.0538 9.34183 42.6519 14.165 44.5611C13.8061 44.2817 13.4508 43.9925 13.0991 43.694C13.4508 43.9925 13.8061 44.2817 14.165 44.561C14.1756 44.5652 14.1863 44.5695 14.1971 44.5737C14.2213 44.5833 14.2457 44.5928 14.27 44.6023L14.3175 44.6207C15.8731 45.2197 17.6312 45.6414 19.5104 45.886C19.5104 45.8861 19.5105 45.8861 19.5105 45.8861L19.7037 45.9113C27.064 46.8702 32.8297 47.6214 39.1709 43.1069C42.2684 40.9017 45.4407 35.1624 46.2415 32.1738C47.8551 26.1518 47.4875 19.5479 44.0746 14.1124C43.1626 12.6583 42.2368 11.3602 41.2936 10.2058C39.4903 8.94316 37.4415 7.87513 35.1985 7.01114C33.6713 6.42289 32.0913 5.96352 30.4916 5.64192C29.2943 5.52019 28.0561 5.42566 26.7775 5.35321C24.9764 5.25112 23.179 5.25518 21.4139 5.36421C15.0731 6.32362 9.46927 9.87712 6.88969 16.6581Z" fill="#9FA3FE"/>
<path d="M33.9788 18.7381L33.9141 18.574C33.9122 18.5693 33.9085 18.5654 33.9039 18.5633L33.7433 18.4904C32.4213 17.89 30.5566 17.7418 28.9068 17.6761H27.0486C27.0277 17.6761 27.0213 17.7045 27.0401 17.7136L30.857 19.5435C30.8786 19.5537 30.8667 19.5858 30.8435 19.5797C29.1269 19.1314 27.3928 18.9045 25.6804 18.9045C23.9735 18.9045 22.245 19.1301 20.5337 19.5755C20.5104 19.5815 20.4986 19.5491 20.5204 19.539L24.4713 17.7138C24.4904 17.7049 24.4842 17.6762 24.463 17.6762H22.454C20.8043 17.7419 18.9395 17.8901 17.6175 18.4905L17.457 18.5634C17.4523 18.5655 17.4486 18.5694 17.4468 18.5741L17.3821 18.7382C16.0292 22.1663 15.6448 27.9859 16.0547 31.6317L16.0762 31.8229L16.2283 31.9409C18.3418 33.5798 21.1678 34.4224 22.9456 34.646L23.1754 34.6749C23.2502 34.6843 23.3215 34.6411 23.348 34.5706L24.505 31.4792C24.5411 31.3828 24.4797 31.2776 24.3781 31.2616L24.023 31.2059C22.7849 31.0113 21.0308 30.4957 19.5484 29.1513C19.5167 29.1226 19.5472 29.071 19.5872 29.0859C19.7077 29.1306 19.8406 29.1825 19.9774 29.2359C20.3126 29.3669 20.6592 29.5023 20.8854 29.5561C22.4752 29.934 24.0872 30.1257 25.6803 30.1257V30.0974H25.6836L25.6838 30.1257C27.2737 30.1257 28.8857 29.9341 30.4753 29.5561C30.7016 29.5023 31.0482 29.3669 31.3835 29.2359C31.5202 29.1825 31.653 29.1306 31.7734 29.0859C31.8134 29.071 31.8439 29.1226 31.8123 29.1513C30.3348 30.4898 28.5785 31.0041 27.3376 31.1984L26.9827 31.254C26.881 31.2699 26.8195 31.375 26.8555 31.4714L28.0128 34.5704C28.0392 34.641 28.1106 34.6842 28.1854 34.6748L28.4154 34.6459C30.1931 34.4223 33.0189 33.5797 35.1324 31.9408L35.2845 31.8229L35.306 31.6317C35.716 27.9859 35.3316 22.1662 33.9788 18.7381ZM21.9038 27.1546C20.4667 27.2827 19.2677 26.0838 19.3956 24.6467C19.4938 23.545 20.3809 22.6578 21.4826 22.5595C22.9198 22.4314 24.1188 23.6303 23.9908 25.0675C23.8926 26.1691 23.0055 27.0563 21.9038 27.1546ZM29.8783 27.1546C28.4412 27.2827 27.2422 26.0838 27.3702 24.6467C27.4683 23.545 28.3554 22.6578 29.4571 22.5595C30.8942 22.4314 32.0933 23.6303 31.9653 25.0675C31.8671 26.1691 30.98 27.0563 29.8783 27.1546Z" fill="white"/>
</svg>
