<svg width="42" height="43" viewBox="0 0 42 43" fill="none" xmlns="http://www.w3.org/2000/svg">
<path fill-rule="evenodd" clip-rule="evenodd" d="M16.8075 42.0267C18.1812 42.1669 19.5455 42.2381 20.8865 42.2381C24.3198 42.2381 27.6032 41.7717 30.514 40.8049C31.968 40.3219 33.3286 39.714 34.5695 38.9768C34.5695 38.9768 34.5695 38.9768 34.5695 38.9768C38.5433 36.6158 41.2809 32.9304 41.8767 27.7775C41.6997 28.1964 41.5124 28.6145 41.315 29.0314C41.5124 28.6145 41.6997 28.1964 41.8766 27.7775C41.8779 27.7662 41.8793 27.7547 41.8806 27.7432C41.8835 27.7174 41.8865 27.6914 41.8893 27.6654L41.8948 27.6147C42.0708 25.9571 42.0231 24.1498 41.773 22.2713C41.773 22.2713 41.773 22.2712 41.7731 22.2712L41.7474 22.0781C40.7686 14.7204 40.0019 8.95672 34 4C31.0683 1.57884 24.7035 0 21.6094 0C15.375 0 9.09129 2.06427 4.72436 6.76772C3.55582 8.025 2.54158 9.25527 1.67059 10.4651C0.917743 12.5337 0.416381 14.7892 0.162361 17.1794C-0.0105935 18.8067 -0.0453687 20.4518 0.0580357 22.0803C0.250336 23.2683 0.479483 24.4887 0.740412 25.7424C1.10797 27.5086 1.57709 29.2437 2.13925 30.9204C4.70709 36.7969 9.58989 41.2901 16.8075 42.0267Z" fill="#6BB5FF"/>
<path d="M29.5273 12.0721L9.46595 19.8898C8.81616 20.1431 8.85553 21.0755 9.52441 21.273L14.6222 22.7784L16.5247 28.8152C16.7235 29.4458 17.5226 29.637 17.9851 29.1647L20.6208 26.4735L25.7923 30.2695C26.4252 30.734 27.3265 30.3889 27.4872 29.6205L30.9123 13.245C31.08 12.4429 30.2909 11.7746 29.5273 12.0721ZM27.0122 15.7063L17.6938 23.9465C17.6009 24.0287 17.5418 24.1424 17.528 24.2656L17.1692 27.4548C17.1575 27.5588 17.0119 27.5726 16.9809 27.4727L15.5048 22.7164C15.4372 22.4986 15.5253 22.2627 15.7191 22.1426L26.7231 15.3177C26.9762 15.1607 27.2353 15.509 27.0122 15.7063Z" fill="white"/>
</svg>
