<svg width="57" height="57" viewBox="0 0 57 57" fill="none" xmlns="http://www.w3.org/2000/svg">
<path fill-rule="evenodd" clip-rule="evenodd" d="M45.0237 41.8374C45.7862 40.6862 46.4832 39.5112 47.1064 38.3238C48.7019 35.2838 49.8148 32.1597 50.3114 29.1331C50.5595 27.6211 50.6535 26.1339 50.5774 24.6926C50.5774 24.6925 50.5774 24.6925 50.5774 24.6925C50.3335 20.0767 48.3425 15.94 44.0567 13.0178C44.3454 13.3692 44.6285 13.7294 44.906 14.0979C44.6285 13.7294 44.3453 13.3692 44.0567 13.0179C44.0472 13.0114 44.0377 13.0049 44.0281 12.9984C44.0066 12.9838 43.9849 12.9691 43.9633 12.9545L43.921 12.9261C42.535 12 40.9125 11.2023 39.133 10.5508C39.133 10.5507 39.1329 10.5507 39.1329 10.5507L38.95 10.4837C31.9802 7.93108 26.5204 5.93148 19.3422 8.94247C15.836 10.4132 11.4801 15.3153 10.0423 18.0549C7.14503 23.5753 6.05271 30.0985 8.18804 36.1511C8.75826 37.77 9.37628 39.2398 10.0428 40.5733C11.5246 42.2012 13.2887 43.6933 15.2871 45.029C16.6477 45.9384 18.0882 46.7337 19.5781 47.3989C20.7194 47.7807 21.9066 48.145 23.138 48.4966C24.8727 48.9919 26.627 49.3828 28.3729 49.6643C34.7696 50.1214 41.0173 47.886 45.0237 41.8374Z" fill="#4FCF44"/>
<path d="M40 27.1962C40 33.1149 35.1651 37.9129 29.2 37.9129C27.3062 37.9129 25.5272 37.4289 23.9794 36.5794L18 38.4795L19.9494 32.7297C18.966 31.1149 18.3997 29.2209 18.3997 27.1962C18.3997 21.2774 23.235 16.4795 29.2 16.4795C35.1656 16.4795 40 21.2774 40 27.1962ZM29.2 18.1862C24.1928 18.1862 20.1198 22.2281 20.1198 27.1962C20.1198 29.1676 20.7625 30.9934 21.8495 32.4786L20.715 35.8248L24.2045 34.7158C25.6382 35.6571 27.3556 36.2062 29.2002 36.2062C34.2067 36.2062 38.2803 32.1648 38.2803 27.1967C38.2803 22.2286 34.2069 18.1862 29.2 18.1862ZM34.6538 29.6643C34.587 29.5551 34.4108 29.4891 34.1463 29.3578C33.8813 29.2265 32.5794 28.5907 32.3374 28.5035C32.0947 28.416 31.9177 28.372 31.7414 28.6347C31.5652 28.8978 31.0577 29.4891 30.903 29.6643C30.7485 29.8401 30.5943 29.8621 30.3293 29.7306C30.0648 29.5993 29.2119 29.3216 28.2007 28.427C27.4138 27.7308 26.8824 26.8713 26.7279 26.608C26.5736 26.3453 26.7118 26.2032 26.844 26.0725C26.9633 25.9546 27.109 25.7657 27.2412 25.6124C27.374 25.4589 27.418 25.3496 27.5057 25.1741C27.5944 24.9989 27.5502 24.8456 27.4837 24.7138C27.4177 24.5826 26.8878 23.29 26.6673 22.7639C26.4468 22.2384 26.2265 22.3259 26.0718 22.3259C25.9176 22.3259 25.7408 22.3039 25.5643 22.3039C25.3878 22.3039 25.1009 22.3696 24.8581 22.6324C24.6156 22.8954 23.9319 23.531 23.9319 24.8234C23.9319 26.116 24.8801 27.3648 25.0129 27.5399C25.1451 27.7149 26.8438 30.4536 29.5351 31.5055C32.2267 32.5568 32.2267 32.2061 32.7121 32.1621C33.1971 32.1183 34.278 31.5268 34.4995 30.9137C34.7195 30.2996 34.7195 29.7738 34.6538 29.6643Z" fill="white"/>
</svg>
