<svg width="128" height="97" viewBox="0 0 128 97" fill="none" xmlns="http://www.w3.org/2000/svg">
<mask id="mask0" mask-type="alpha" maskUnits="userSpaceOnUse" x="0" y="0" width="128" height="97">
<rect width="128" height="97" fill="#C4C4C4"/>
</mask>
<g mask="url(#mask0)">
<rect width="47" height="37" transform="translate(45 29)" fill="white"/>
<path d="M66.5195 31.018C69.3893 31.1125 82.9451 33.0872 87.0331 31.7636C85.714 33.2155 79.3313 33.4289 76.3185 33.6734C79.473 33.7328 86.2209 32.8414 88.9912 32.9211C88.081 33.8665 81.9326 34.5621 79.8246 34.604C82.6371 34.812 90.7368 34.4338 92 34.0907C91.6035 35.3225 82.7339 35.8979 80.0358 35.771C82.8429 36.0965 89.5826 35.6102 90.249 35.6035C89.4191 37.0244 81.9231 36.8447 78.2889 36.5098C80.7267 36.8272 86.7374 36.9582 87.4419 36.9879C87.277 37.7186 82.6998 38.0049 78.2984 37.3229C76.527 37.0527 74.517 36.5786 72.7442 36.1154C72.7115 36.1707 72.6788 36.2248 72.6447 36.2761C74.1137 37.3769 75.8061 39.8364 76.2994 41.1992C75.1057 39.904 73.6272 38.8099 72.7074 38.14C74.3726 39.6149 76.5024 41.8759 77.0993 44.3989C75.5772 42.789 72.8518 40.4213 71.248 39.4123C73.1557 40.8872 76.854 43.7142 78.4824 49.7732C76.7559 47.4028 73.7131 42.5783 71.2807 41.2438C74.1655 43.3279 77.8665 49.8043 79.0479 57.8312C76.1468 51.0064 71.0082 43.1496 67.4734 40.6576C72.1991 44.5907 79.2414 58.1662 76.5896 66C75.7175 57.0857 67.9585 47.546 63.0325 43.9303C62.4166 43.028 62.0786 39.6163 61.7393 39.7783C60.4925 40.3767 58.6052 43.9883 58.582 44.0896C59.0344 45.3998 59.45 47.8715 58.4785 48.9331C58.3422 47.5338 57.8707 46.2453 57.5723 45.4525C57.9593 47.1165 58.6325 50.6268 57.511 51.8654C57.3079 50.1203 56.3405 47.4879 55.7259 46.2453C56.2982 47.9633 58.0669 52.8568 56.1865 55.4568C56.1674 53.2106 55.1304 48.2767 54.0784 46.5627C55.0323 49.0317 56.7888 56.0916 54.0989 60.0895C54.4736 55.3204 53.3426 49.4626 52.1434 46.4911C53.3944 50.9929 54.7448 60.0179 51.7442 65.4003C52.8439 60.488 51.349 49.5544 49.4508 44.4435C48.6332 42.2528 49.1306 42.4608 49.9536 41.0925C50.8544 39.5947 50.9593 38.6546 51.4526 37.1135C50.3039 37.1986 49.7097 36.9015 48.4738 36.896C47.911 37.5119 46.0973 37.358 45.7376 38.4317C45.0712 38.2859 44.7156 37.828 45.2824 36.4557C45.7594 36.4449 45.9801 36.8988 46.4966 37.1972C46.9054 37.0149 47.6576 36.7083 48.0991 36.7704C47.6153 36.6516 46.9435 36.792 46.5184 36.9231C46.1096 36.6772 45.8711 36.0397 45.3356 36.1491C45.3831 35.9395 45.4933 35.7488 45.6517 35.6021C46.0128 30.9586 57.0777 28.6908 60.8004 29.0339C58.999 29.5093 58.5643 30.0887 59.495 29.9942C62.8581 29.6484 68.1929 29.5647 70.365 30.8856C69.3185 30.7398 67.5375 30.8465 66.5195 31.018Z" fill="#1B2B47"/>
<path d="M66.4201 36.1945C66.4401 36.1192 69.5488 38.2753 70.6405 39.2432C70.0321 38.1644 66.5533 35.3957 66.5732 35.3062C67.9538 36.149 68.5143 36.5228 70.2518 37.9015C69.2647 36.567 68.086 35.4075 66.7596 34.4661C67.3481 34.5486 68.3679 35.1939 69.7751 36.5029C68.1429 35.0134 66.8821 30.5106 53 31.0436C61.5753 33.1841 64.6774 34.3468 71 41C69.9336 39.0556 67.8553 37.5675 66.4201 36.1945Z" fill="#6287B2"/>
<path d="M71.1341 48.2807C70.2403 47.0528 66.052 41.8645 64.9857 40.3404C66.0641 41.4304 68.2358 43.7373 69.2832 44.8135C68.3167 43.1599 65.9279 40.7827 65.5734 39.2448L63 37C63.1887 38.8535 63.5797 41.0749 63.8627 42.0753C64.9412 43.7428 70.0502 48.588 74 55C70.4695 48.26 66.3013 44.0032 64.8522 41.5489C66.1652 42.8264 69.2091 46.4313 71.1341 48.2807Z" fill="#6287B2"/>
<path d="M76 36C74.681 35.1063 72.8222 34.8216 71.4308 34.4067C71.4211 34.3529 74.1801 34.7338 75.2153 35.0001C74.4709 34.5101 71.275 33.8557 71.2611 33.7934C72.3633 33.8713 73.4584 34.0313 74.5377 34.2721C73.4611 33.7393 72.3105 33.3782 71.1261 33.2014C71.5435 33.0669 72.7957 33.2906 73.7864 33.5371C73.3467 33.1419 71.5199 31.5358 65 32.1307C67.1329 32.7595 68.4575 33.5966 69.3786 34.4038C71.2889 34.5525 73.2869 35.0483 76 36Z" fill="#6287B2"/>
<path d="M50 42.8079C50.747 45.1582 51.3202 47.5623 51.7147 50C51.439 47.5619 51.173 45.7463 50.6795 42.947C51.6444 41.449 52.0496 40.7619 52.9235 39.1992C52.5616 40.5196 52.0951 41.8077 51.5286 43.051C52.7953 41.5052 53.4431 40.4668 54.2509 38.6849C53.9575 40.2548 53.4131 41.765 52.6396 43.155C54.1558 41.4589 55.071 39.878 56 37.4862C54.9924 37.3302 53.6375 37.0211 52.4962 37C51.8332 38.8634 50.9786 41.0064 50 42.8079Z" fill="#6287B2"/>
<path d="M51.2112 33C52.1231 32.8086 53.059 32.7054 54 32.6924C52.81 32.3189 51.299 31.9329 50.8751 31.8843C51.078 31.6415 51.9182 31.182 52.6238 31.1023C52.159 31.0142 51.681 30.9828 51.2051 31.0089L50.5784 31.2891C50.7739 31.2712 50.971 31.2674 51.1673 31.2779C50.8403 31.3613 50.0712 32.0524 50 32.2379C50.542 32.2641 51.9167 32.4334 52.1923 32.5517C51.8062 32.6339 51.3111 32.797 51.2112 33Z" fill="#6287B2"/>
</g>
</svg>
