<svg width="128" height="97" viewBox="0 0 128 97" fill="none" xmlns="http://www.w3.org/2000/svg">
<mask id="mask0" mask-type="alpha" maskUnits="userSpaceOnUse" x="0" y="0" width="128" height="97">
<rect width="128" height="97" fill="#C4C4C4"/>
</mask>
<g mask="url(#mask0)">
</g>
<path d="M88 24H39V73H88V24Z" fill="white"/>
<path d="M63.5 24.8828H39.8829V48.4999H63.5V24.8828Z" fill="#1C0000"/>
<path d="M63.5 48.5H39.8829V72.1171H63.5V48.5Z" fill="#FFEE00"/>
<path d="M87.1171 48.5H63.5V72.1171H87.1171V48.5Z" fill="#FFEE00"/>
<path fill-rule="evenodd" clip-rule="evenodd" d="M63.5 24.8828H87.1171V48.4999H80.5945L75.3086 57.0404L69.8236 48.4999H63.5V24.8828Z" fill="#F80051"/>
<path fill-rule="evenodd" clip-rule="evenodd" d="M39.8829 48.5005L39.8829 24.8838L49.4716 24.8838C58.3501 24.8838 63.4439 27.7958 63.4996 36.6247C63.5552 45.4535 58.279 48.5005 49.3295 48.5005H39.8829ZM46.2412 42.5963H49.4655C53.5329 42.5963 57.5954 42.0707 57.5954 36.9192C57.5954 31.7677 53.5329 30.788 49.4655 30.788L46.2412 30.788L46.2412 42.5963Z" fill="#FFEE00"/>
<path fill-rule="evenodd" clip-rule="evenodd" d="M63.5 71.9024V48.5H69.6897L75.2533 56.9371L80.4391 48.5H87.0237V72.0111H80.4578V60.0417L75.2533 67.9685L69.6897 60.0417V71.9763L63.5 71.9024Z" fill="#1C0000"/>
<path fill-rule="evenodd" clip-rule="evenodd" d="M39.941 48.5H56.8652V54.1309H46.0988V60.6217H56.7233V65.8028H46.0597V72.0992H39.8829" fill="#1C0000"/>
<path fill-rule="evenodd" clip-rule="evenodd" d="M67.0613 39.2575V35.4013H68.3731C69.5877 35.4013 70.0152 35.9856 70.0063 37.3184C69.9973 38.6513 69.578 39.2575 68.3536 39.2575H67.0613ZM68.0038 38.31H68.3876C68.9512 38.31 69.0394 38.0551 69.0394 37.3239C69.0394 36.5927 68.9512 36.3378 68.3876 36.3378H68.0038V38.31ZM70.182 39.2575L71.6299 35.3738H72.5384L73.9862 39.2575H72.9757L72.7279 38.5689H71.4161L71.1732 39.2575H70.182ZM71.693 37.7371H72.4558L72.0768 36.6408L71.693 37.7371ZM74.2356 39.2575H75.1684V37.1421L76.6211 39.2575H77.4471V35.4013H76.5142V37.4396L75.115 35.4013H74.2356V39.2575ZM79.6058 39.3347C80.3589 39.3347 80.6353 38.9656 80.956 38.4643L80.2466 37.8914C80.0426 38.1723 79.9897 38.3596 79.635 38.3596C79.1589 38.3596 78.8236 37.9079 78.8236 37.3294C78.8236 36.7565 79.1589 36.2993 79.635 36.2993C79.9605 36.2993 80.0329 36.4701 80.2272 36.7455L80.9171 36.1395C80.6159 35.6658 80.3395 35.3242 79.6447 35.3242C78.6147 35.3242 77.8519 36.2056 77.8519 37.3294C77.8519 38.4918 78.6341 39.3347 79.6058 39.3347ZM81.4342 39.2575H84.1938V38.3486H82.3671V37.7371H83.9995V36.8942H82.3671V36.3103H84.1696V35.4013H81.4342V39.2575Z" fill="white"/>
</svg>
