<svg width="128" height="97" viewBox="0 0 128 97" fill="none" xmlns="http://www.w3.org/2000/svg">
<g clip-path="url(#clip0)">
<path d="M53.1776 34.3435C53.4813 34.3435 53.7275 34.0985 53.7275 33.7963C53.7275 33.494 53.4813 33.249 53.1776 33.249C52.8739 33.249 52.6277 33.494 52.6277 33.7963C52.6277 34.0985 52.8739 34.3435 53.1776 34.3435Z" fill="#CBA465"/>
<path d="M52.9943 32.9451C53.298 32.9451 53.5442 32.7001 53.5442 32.3978C53.5442 32.0956 53.298 31.8506 52.9943 31.8506C52.6906 31.8506 52.4444 32.0956 52.4444 32.3978C52.4444 32.7001 52.6906 32.9451 52.9943 32.9451Z" fill="#CBA465"/>
<path d="M53.1776 31.5464C53.4813 31.5464 53.7275 31.3014 53.7275 30.9992C53.7275 30.6969 53.4813 30.4519 53.1776 30.4519C52.8739 30.4519 52.6277 30.6969 52.6277 30.9992C52.6277 31.3014 52.8739 31.5464 53.1776 31.5464Z" fill="#CBA465"/>
<path d="M53.7275 30.2695C54.0312 30.2695 54.2773 30.0245 54.2773 29.7223C54.2773 29.4201 54.0312 29.175 53.7275 29.175C53.4238 29.175 53.1776 29.4201 53.1776 29.7223C53.1776 30.0245 53.4238 30.2695 53.7275 30.2695Z" fill="#CBA465"/>
<path d="M54.5828 29.1751C54.8865 29.1751 55.1327 28.9301 55.1327 28.6278C55.1327 28.3256 54.8865 28.0806 54.5828 28.0806C54.2792 28.0806 54.033 28.3256 54.033 28.6278C54.033 28.9301 54.2792 29.1751 54.5828 29.1751Z" fill="#CBA465"/>
<path d="M55.6826 28.3237C55.9863 28.3237 56.2325 28.0787 56.2325 27.7765C56.2325 27.4743 55.9863 27.2292 55.6826 27.2292C55.3789 27.2292 55.1327 27.4743 55.1327 27.7765C55.1327 28.0787 55.3789 28.3237 55.6826 28.3237Z" fill="#CBA465"/>
<path d="M57.0267 27.8374C57.3304 27.8374 57.5766 27.5924 57.5766 27.2902C57.5766 26.9879 57.3304 26.7429 57.0267 26.7429C56.723 26.7429 56.4768 26.9879 56.4768 27.2902C56.4768 27.5924 56.723 27.8374 57.0267 27.8374Z" fill="#CBA465"/>
<path d="M75.6002 34.3435C75.2965 34.3435 75.0503 34.0985 75.0503 33.7963C75.0503 33.494 75.2965 33.249 75.6002 33.249C75.9039 33.249 76.15 33.494 76.15 33.7963C76.15 34.0985 75.9039 34.3435 75.6002 34.3435Z" fill="#CBA465"/>
<path d="M75.7835 32.9451C75.4798 32.9451 75.2336 32.7001 75.2336 32.3978C75.2336 32.0956 75.4798 31.8506 75.7835 31.8506C76.0872 31.8506 76.3334 32.0956 76.3334 32.3978C76.3334 32.7001 76.0872 32.9451 75.7835 32.9451Z" fill="#CBA465"/>
<path d="M75.6002 31.5464C75.2965 31.5464 75.0503 31.3014 75.0503 30.9992C75.0503 30.6969 75.2965 30.4519 75.6002 30.4519C75.9039 30.4519 76.15 30.6969 76.15 30.9992C76.15 31.3014 75.9039 31.5464 75.6002 31.5464Z" fill="#CBA465"/>
<path d="M75.0503 30.2695C74.7466 30.2695 74.5004 30.0245 74.5004 29.7223C74.5004 29.4201 74.7466 29.175 75.0503 29.175C75.354 29.175 75.6002 29.4201 75.6002 29.7223C75.6002 30.0245 75.354 30.2695 75.0503 30.2695Z" fill="#CBA465"/>
<path d="M74.1949 29.1751C73.8913 29.1751 73.6451 28.9301 73.6451 28.6278C73.6451 28.3256 73.8913 28.0806 74.1949 28.0806C74.4986 28.0806 74.7448 28.3256 74.7448 28.6278C74.7448 28.9301 74.4986 29.1751 74.1949 29.1751Z" fill="#CBA465"/>
<path d="M73.0952 28.3237C72.7915 28.3237 72.5453 28.0787 72.5453 27.7765C72.5453 27.4743 72.7915 27.2292 73.0952 27.2292C73.3989 27.2292 73.6451 27.4743 73.6451 27.7765C73.6451 28.0787 73.3989 28.3237 73.0952 28.3237Z" fill="#CBA465"/>
<path d="M71.7511 27.8374C71.4474 27.8374 71.2012 27.5924 71.2012 27.2902C71.2012 26.9879 71.4474 26.7429 71.7511 26.7429C72.0547 26.7429 72.3009 26.9879 72.3009 27.2902C72.3009 27.5924 72.0547 27.8374 71.7511 27.8374Z" fill="#CBA465"/>
<path d="M64.3583 27.1077C64.662 27.1077 64.9082 26.8627 64.9082 26.5604C64.9082 26.2582 64.662 26.0132 64.3583 26.0132C64.0547 26.0132 63.8085 26.2582 63.8085 26.5604C63.8085 26.8627 64.0547 27.1077 64.3583 27.1077Z" fill="#CBA465"/>
<path d="M64.3583 28.5672C64.662 28.5672 64.9082 28.3221 64.9082 28.0199C64.9082 27.7177 64.662 27.4727 64.3583 27.4727C64.0547 27.4727 63.8085 27.7177 63.8085 28.0199C63.8085 28.3221 64.0547 28.5672 64.3583 28.5672Z" fill="#CBA465"/>
<path d="M64.3583 30.0264C64.662 30.0264 64.9082 29.7814 64.9082 29.4791C64.9082 29.1769 64.662 28.9319 64.3583 28.9319C64.0547 28.9319 63.8085 29.1769 63.8085 29.4791C63.8085 29.7814 64.0547 30.0264 64.3583 30.0264Z" fill="#CBA465"/>
<path d="M64.3583 31.4856C64.662 31.4856 64.9082 31.2406 64.9082 30.9384C64.9082 30.6361 64.662 30.3911 64.3583 30.3911C64.0547 30.3911 63.8085 30.6361 63.8085 30.9384C63.8085 31.2406 64.0547 31.4856 64.3583 31.4856Z" fill="#CBA465"/>
<path d="M64.3583 32.9451C64.662 32.9451 64.9082 32.7001 64.9082 32.3978C64.9082 32.0956 64.662 31.8506 64.3583 31.8506C64.0547 31.8506 63.8085 32.0956 63.8085 32.3978C63.8085 32.7001 64.0547 32.9451 64.3583 32.9451Z" fill="#CBA465"/>
<path d="M58.0654 33.3098C58.3691 33.3098 58.6152 33.0648 58.6152 32.7626C58.6152 32.4603 58.3691 32.2153 58.0654 32.2153C57.7617 32.2153 57.5155 32.4603 57.5155 32.7626C57.5155 33.0648 57.7617 33.3098 58.0654 33.3098Z" fill="#CBA465"/>
<path d="M57.6377 31.9722C57.9414 31.9722 58.1876 31.7272 58.1876 31.4249C58.1876 31.1227 57.9414 30.8777 57.6377 30.8777C57.334 30.8777 57.0878 31.1227 57.0878 31.4249C57.0878 31.7272 57.334 31.9722 57.6377 31.9722Z" fill="#CBA465"/>
<path d="M57.6988 30.5737C58.0025 30.5737 58.2487 30.3287 58.2487 30.0265C58.2487 29.7243 58.0025 29.4792 57.6988 29.4792C57.3951 29.4792 57.1489 29.7243 57.1489 30.0265C57.1489 30.3287 57.3951 30.5737 57.6988 30.5737Z" fill="#CBA465"/>
<path d="M58.0654 29.2966C58.3691 29.2966 58.6152 29.0516 58.6152 28.7494C58.6152 28.4472 58.3691 28.2021 58.0654 28.2021C57.7617 28.2021 57.5155 28.4472 57.5155 28.7494C57.5155 29.0516 57.7617 29.2966 58.0654 29.2966Z" fill="#CBA465"/>
<path d="M58.7985 28.0806C59.1022 28.0806 59.3484 27.8356 59.3484 27.5333C59.3484 27.2311 59.1022 26.9861 58.7985 26.9861C58.4948 26.9861 58.2486 27.2311 58.2486 27.5333C58.2486 27.8356 58.4948 28.0806 58.7985 28.0806Z" fill="#CBA465"/>
<path d="M59.8372 27.1685C60.1409 27.1685 60.387 26.9235 60.387 26.6212C60.387 26.319 60.1409 26.074 59.8372 26.074C59.5335 26.074 59.2873 26.319 59.2873 26.6212C59.2873 26.9235 59.5335 27.1685 59.8372 27.1685Z" fill="#CBA465"/>
<path d="M60.998 26.4387C61.3017 26.4387 61.5479 26.1937 61.5479 25.8915C61.5479 25.5893 61.3017 25.3442 60.998 25.3442C60.6943 25.3442 60.4481 25.5893 60.4481 25.8915C60.4481 26.1937 60.6943 26.4387 60.998 26.4387Z" fill="#CBA465"/>
<path d="M62.3421 26.074C62.6458 26.074 62.892 25.829 62.892 25.5267C62.892 25.2245 62.6458 24.9795 62.3421 24.9795C62.0385 24.9795 61.7923 25.2245 61.7923 25.5267C61.7923 25.829 62.0385 26.074 62.3421 26.074Z" fill="#CBA465"/>
<path d="M70.7124 33.3098C70.4087 33.3098 70.1625 33.0648 70.1625 32.7626C70.1625 32.4603 70.4087 32.2153 70.7124 32.2153C71.0161 32.2153 71.2623 32.4603 71.2623 32.7626C71.2623 33.0648 71.0161 33.3098 70.7124 33.3098Z" fill="#CBA465"/>
<path d="M71.1401 31.9722C70.8364 31.9722 70.5902 31.7272 70.5902 31.4249C70.5902 31.1227 70.8364 30.8777 71.1401 30.8777C71.4438 30.8777 71.69 31.1227 71.69 31.4249C71.69 31.7272 71.4438 31.9722 71.1401 31.9722Z" fill="#CBA465"/>
<path d="M71.079 30.5737C70.7753 30.5737 70.5291 30.3287 70.5291 30.0265C70.5291 29.7243 70.7753 29.4792 71.079 29.4792C71.3827 29.4792 71.6289 29.7243 71.6289 30.0265C71.6289 30.3287 71.3827 30.5737 71.079 30.5737Z" fill="#CBA465"/>
<path d="M70.7124 29.2966C70.4087 29.2966 70.1625 29.0516 70.1625 28.7494C70.1625 28.4472 70.4087 28.2021 70.7124 28.2021C71.0161 28.2021 71.2623 28.4472 71.2623 28.7494C71.2623 29.0516 71.0161 29.2966 70.7124 29.2966Z" fill="#CBA465"/>
<path d="M69.9792 28.0806C69.6756 28.0806 69.4294 27.8356 69.4294 27.5333C69.4294 27.2311 69.6756 26.9861 69.9792 26.9861C70.2829 26.9861 70.5291 27.2311 70.5291 27.5333C70.5291 27.8356 70.2829 28.0806 69.9792 28.0806Z" fill="#CBA465"/>
<path d="M68.9406 27.1685C68.6369 27.1685 68.3907 26.9235 68.3907 26.6212C68.3907 26.319 68.6369 26.074 68.9406 26.074C69.2443 26.074 69.4905 26.319 69.4905 26.6212C69.4905 26.9235 69.2443 27.1685 68.9406 27.1685Z" fill="#CBA465"/>
<path d="M67.7798 26.4387C67.4761 26.4387 67.2299 26.1937 67.2299 25.8915C67.2299 25.5893 67.4761 25.3442 67.7798 25.3442C68.0834 25.3442 68.3296 25.5893 68.3296 25.8915C68.3296 26.1937 68.0834 26.4387 67.7798 26.4387Z" fill="#CBA465"/>
<path d="M66.4356 26.074C66.1319 26.074 65.8858 25.829 65.8858 25.5267C65.8858 25.2245 66.1319 24.9795 66.4356 24.9795C66.7393 24.9795 66.9855 25.2245 66.9855 25.5267C66.9855 25.829 66.7393 26.074 66.4356 26.074Z" fill="#CBA465"/>
<path fill-rule="evenodd" clip-rule="evenodd" d="M57.5807 35.5291C57.563 35.4874 57.5522 35.442 57.5497 35.3942C57.5418 35.2444 57.6176 35.1097 57.736 35.0359C57.7957 34.9922 57.8683 34.9649 57.9475 34.9607C57.9744 34.9593 57.9945 34.9591 58.0093 34.9601C58.1149 34.9471 58.2255 34.9543 58.3409 34.9816C58.0699 34.8575 57.9107 34.7259 57.8633 34.5865C57.8438 34.5398 57.8331 34.4886 57.8331 34.4349C57.8331 34.2166 58.0109 34.0397 58.2302 34.0397C58.2766 34.0397 58.3211 34.0476 58.3625 34.0622C58.3365 34.0095 58.3218 33.9503 58.3218 33.8877C58.3218 33.6694 58.4996 33.4924 58.719 33.4924C58.9383 33.4924 59.1161 33.6694 59.1161 33.8877C59.1161 33.909 59.1144 33.93 59.1111 33.9505C59.1595 33.9296 59.2128 33.9181 59.2688 33.9181C59.4882 33.9181 59.666 34.095 59.666 34.3133C59.666 34.3692 59.6537 34.4223 59.6318 34.4703C59.6214 34.5092 59.5858 34.5606 59.5414 34.6021C59.4958 34.6447 59.4412 34.6678 59.394 34.7085C59.3458 34.7502 59.2979 34.7807 59.2906 34.8138C59.5771 34.6883 59.6084 34.6453 59.7108 34.6207C59.761 34.5975 59.817 34.5845 59.876 34.5845C60.0943 34.5845 60.2712 34.7623 60.2712 34.9816C60.2712 35.0275 60.2635 35.0717 60.2492 35.1127C60.3024 35.086 60.3624 35.0709 60.4259 35.0709C60.6442 35.0709 60.8211 35.2487 60.8211 35.468C60.8211 35.6874 60.6442 35.8652 60.4259 35.8652C60.4049 35.8652 60.3842 35.8635 60.3641 35.8603C60.3639 35.8612 60.3636 35.8621 60.3633 35.8629C60.3827 35.9099 60.3934 35.9613 60.3934 36.0153C60.3934 36.2311 60.2222 36.4067 60.0088 36.4123C59.8277 36.427 59.5646 36.3427 59.4971 36.3072C59.3759 36.2433 59.2288 36.0669 59.0558 35.7782C59.0178 35.9991 58.9388 36.2068 58.8188 36.4014C58.7114 36.5754 58.5255 36.6986 58.2613 36.7708C58.2309 36.7824 58.1986 36.7903 58.165 36.7941C58.165 36.7941 58.1649 36.7941 58.1649 36.7941C58.1571 36.795 58.1494 36.7956 58.1415 36.796C57.9235 36.8074 57.7375 36.6391 57.7261 36.4201C57.7236 36.3741 57.7291 36.3296 57.7413 36.2878C57.6895 36.3173 57.6303 36.3355 57.5668 36.3389C57.3488 36.3503 57.1628 36.182 57.1514 35.963C57.1434 35.8116 57.2209 35.6756 57.3415 35.6023C57.4006 35.56 57.4719 35.5336 57.5498 35.5295C57.5601 35.529 57.5705 35.5288 57.5807 35.5291Z" fill="#CBA465"/>
<path fill-rule="evenodd" clip-rule="evenodd" d="M75.3148 35.1215C75.2981 35.1206 75.2816 35.1209 75.2653 35.1221C75.2819 35.1218 75.2984 35.1216 75.3148 35.1215ZM75.2089 35.123C75.2372 35.0755 75.2559 35.0213 75.2621 34.9627C75.2849 34.7456 75.1266 34.551 74.9085 34.5281C74.6903 34.5052 74.495 34.6626 74.4722 34.8797C74.4699 34.9011 74.4694 34.9222 74.4706 34.943C74.4246 34.9172 74.3727 34.9001 74.3169 34.8942C74.0988 34.8713 73.9034 35.0287 73.8806 35.2458C73.8749 35.3003 73.8812 35.3534 73.8972 35.4026C73.9025 35.4426 73.9331 35.499 73.9738 35.5459C74.0147 35.593 74.0665 35.6217 74.1092 35.6672C74.1528 35.7136 74.1973 35.749 74.2011 35.7827C73.9283 35.6274 73.9025 35.5815 73.8023 35.5464C73.7551 35.5184 73.7012 35.4999 73.643 35.4938C73.426 35.471 73.2314 35.6293 73.2085 35.8474C73.2036 35.8933 73.2068 35.9382 73.2168 35.9806C73.1666 35.9483 73.1084 35.927 73.0451 35.9204C72.828 35.8975 72.6334 36.0559 72.6105 36.274C72.5876 36.4921 72.745 36.6874 72.9621 36.7103C72.983 36.7125 73.0038 36.713 73.0242 36.7119C73.0243 36.7126 73.0244 36.7132 73.0245 36.7138C73.0002 36.7586 72.984 36.8088 72.9784 36.8627C72.9555 37.0802 73.1119 37.275 73.328 37.2988C73.5065 37.3292 73.7699 37.2741 73.8396 37.2463C73.9601 37.1981 74.1144 37.0519 74.3022 36.8078C74.4489 36.5988 74.5716 36.4234 74.6705 36.2818C74.8926 35.9637 75.0686 35.5775 75.1983 35.1232C75.2018 35.1231 75.2054 35.1231 75.2089 35.123Z" fill="#CBA465"/>
<path fill-rule="evenodd" clip-rule="evenodd" d="M53.4151 35.1823C53.4318 35.1814 53.4484 35.1817 53.4647 35.1829C53.4481 35.1826 53.4315 35.1824 53.4151 35.1823ZM53.5211 35.1838C53.4928 35.1363 53.474 35.082 53.4679 35.0235C53.4451 34.8064 53.6034 34.6118 53.8215 34.5889C54.0397 34.566 54.235 34.7234 54.2578 34.9404C54.26 34.9618 54.2605 34.983 54.2594 35.0038C54.3053 34.978 54.3573 34.9609 54.4131 34.955C54.6312 34.9321 54.8265 35.0895 54.8494 35.3066C54.8551 35.3611 54.8488 35.4142 54.8328 35.4634C54.8275 35.5034 54.7969 35.5598 54.7562 35.6067C54.7153 35.6538 54.6634 35.6825 54.6207 35.728C54.5771 35.7744 54.5327 35.8098 54.5289 35.8435C54.8017 35.6882 54.8275 35.6423 54.9277 35.6072C54.9749 35.5792 55.0288 35.5607 55.0869 35.5546C55.304 35.5318 55.4986 35.6901 55.5215 35.9082C55.5263 35.9541 55.5232 35.999 55.5132 36.0414C55.5633 36.0091 55.6216 35.9878 55.6849 35.9812C55.902 35.9583 56.0965 36.1167 56.1195 36.3348C56.1424 36.5529 55.985 36.7482 55.7679 36.7711C55.747 36.7733 55.7262 36.7738 55.7058 36.7727C55.7057 36.7734 55.7056 36.774 55.7054 36.7746C55.7298 36.8194 55.7459 36.8696 55.7516 36.9235C55.7745 37.141 55.6181 37.3358 55.402 37.3596C55.2235 37.39 54.9601 37.3349 54.8904 37.307C54.7698 37.2589 54.6156 37.1127 54.4277 36.8686C54.2811 36.6596 54.1584 36.4842 54.0595 36.3426C53.8373 36.0245 53.6614 35.6383 53.5317 35.184C53.5282 35.1839 53.5246 35.1839 53.5211 35.1838Z" fill="#CBA465"/>
<path fill-rule="evenodd" clip-rule="evenodd" d="M63.008 35.0816C62.9963 35.0378 62.9919 34.9914 62.9961 34.9436C63.0092 34.7943 63.1029 34.6714 63.2305 34.6147C63.2957 34.5798 63.3713 34.5629 63.4504 34.5698C63.4772 34.5721 63.4972 34.5747 63.5116 34.5778C63.6181 34.5796 63.7266 34.6021 63.8371 34.6452C63.586 34.4846 63.4467 34.3321 63.4191 34.1875C63.4063 34.1385 63.4028 34.0863 63.4102 34.0331C63.4406 33.817 63.6413 33.6665 63.8585 33.697C63.9045 33.7035 63.9475 33.7175 63.9864 33.7377C63.968 33.682 63.9617 33.6213 63.9704 33.5592C64.0008 33.3431 64.2015 33.1926 64.4187 33.2231C64.6359 33.2537 64.7873 33.4536 64.757 33.6698C64.754 33.691 64.7494 33.7115 64.7433 33.7313C64.7941 33.7174 64.8485 33.7134 64.904 33.7212C65.1212 33.7517 65.2726 33.9517 65.2422 34.1678C65.2345 34.2232 65.2149 34.274 65.1866 34.3186C65.1709 34.3556 65.1284 34.4016 65.0787 34.4364C65.0276 34.4723 64.9703 34.4876 64.9179 34.5214C64.8644 34.5559 64.8127 34.5795 64.8008 34.6112C65.1021 34.5268 65.139 34.4886 65.2438 34.4785C65.2968 34.4624 65.3541 34.4574 65.4125 34.4656C65.6287 34.496 65.7791 34.6966 65.7486 34.9138C65.7422 34.9593 65.7284 35.0019 65.7085 35.0406C65.7649 35.0215 65.8264 35.015 65.8893 35.0238C66.1055 35.0542 66.256 35.2549 66.2254 35.4721C66.1949 35.6893 65.9949 35.8407 65.7788 35.8103C65.758 35.8074 65.7378 35.8029 65.7183 35.797C65.7179 35.7978 65.7175 35.7986 65.7171 35.7994C65.7298 35.8486 65.7333 35.901 65.7258 35.9545C65.6957 36.1682 65.5017 36.3182 65.2896 36.2941C65.1083 36.2835 64.8594 36.1633 64.7976 36.1188C64.6864 36.0386 64.5652 35.8436 64.4341 35.5335C64.3658 35.747 64.2586 35.9417 64.1127 36.1176C63.9821 36.2751 63.7809 36.3712 63.5093 36.4059C63.4775 36.4131 63.4445 36.4165 63.4106 36.4156C63.4106 36.4156 63.4105 36.4156 63.4105 36.4156C63.4027 36.4153 63.3949 36.4149 63.3871 36.4142C63.1697 36.3952 63.0089 36.2026 63.028 35.9841C63.032 35.9383 63.0436 35.8949 63.0615 35.8552C63.0061 35.8773 62.945 35.8871 62.8816 35.8815C62.6642 35.8625 62.5034 35.6699 62.5225 35.4515C62.5357 35.3005 62.6314 35.1766 62.761 35.1207C62.8254 35.0871 62.8997 35.0709 62.9774 35.0777C62.9877 35.0786 62.9979 35.0799 63.008 35.0816Z" fill="#CBA465"/>
<path fill-rule="evenodd" clip-rule="evenodd" d="M68.5104 34.9756C68.5088 34.9304 68.515 34.8841 68.5298 34.8386C68.5761 34.6959 68.6951 34.5973 68.8321 34.5708C68.9035 34.5515 68.9811 34.5519 69.0565 34.5765C69.0822 34.5848 69.101 34.5918 69.1144 34.598C69.2177 34.6237 69.3184 34.67 69.4164 34.7369C69.2078 34.524 69.1064 34.344 69.1121 34.1969C69.1106 34.1464 69.1189 34.0947 69.1381 34.0446C69.2164 33.8408 69.4458 33.7393 69.6505 33.8179C69.6939 33.8345 69.7326 33.8579 69.766 33.8863C69.7606 33.8278 69.7681 33.7673 69.7906 33.7088C69.8688 33.505 70.0982 33.4035 70.303 33.4821C70.5077 33.5607 70.6103 33.7897 70.5321 33.9935C70.5244 34.0134 70.5153 34.0324 70.5049 34.0503C70.5575 34.0482 70.6115 34.0565 70.6638 34.0766C70.8685 34.1552 70.9711 34.3841 70.8929 34.5879C70.8729 34.6401 70.8424 34.6852 70.8048 34.7222C70.7811 34.7548 70.7294 34.79 70.6731 34.8128C70.6152 34.8362 70.556 34.8383 70.4974 34.8594C70.4374 34.881 70.3817 34.8924 70.3631 34.9206C70.6756 34.9062 70.7202 34.8772 70.8245 34.8909C70.8798 34.8872 70.9367 34.8952 70.9918 34.9163C71.1956 34.9945 71.2971 35.2239 71.2185 35.4287C71.202 35.4716 71.179 35.51 71.1509 35.5432C71.2101 35.5373 71.2715 35.5447 71.3308 35.5675C71.5346 35.6457 71.6361 35.8751 71.5575 36.0799C71.4789 36.2846 71.25 36.3872 71.0462 36.309C71.0266 36.3015 71.0079 36.2925 70.9903 36.2824C70.9897 36.2831 70.9891 36.2838 70.9886 36.2845C70.9899 36.3352 70.9815 36.3871 70.9621 36.4375C70.8848 36.639 70.662 36.7415 70.4607 36.6703C70.2864 36.6192 70.071 36.4461 70.0207 36.3888C69.9304 36.2857 69.8563 36.0684 69.7983 35.7368C69.6837 35.9294 69.5355 36.095 69.3537 36.2336C69.191 36.3577 68.9734 36.406 68.7009 36.3787C68.6683 36.3787 68.6353 36.3745 68.6026 36.366C68.6025 36.366 68.6025 36.366 68.6024 36.366C68.5949 36.364 68.5874 36.3618 68.58 36.3594C68.3724 36.2919 68.259 36.0681 68.3268 35.8595C68.341 35.8158 68.3621 35.7761 68.3885 35.7415C68.3296 35.7505 68.2678 35.7463 68.2073 35.7266C67.9997 35.6592 67.8863 35.4354 67.9541 35.2268C68.0009 35.0827 68.122 34.9835 68.2609 34.9582C68.3312 34.9399 68.4073 34.9408 68.4814 34.9649C68.4913 34.9681 68.501 34.9717 68.5104 34.9756Z" fill="#CBA465"/>
<path fill-rule="evenodd" clip-rule="evenodd" d="M74.4244 34.0243C74.9349 33.4777 74.9691 32.3247 74.7999 31.4255C74.7143 30.9705 74.5178 30.5793 74.4244 30.3669C74.1116 29.6558 73.2639 28.9697 71.8813 28.3086C71.6036 28.2477 71.4625 28.2477 71.4581 28.3086C71.4552 28.3478 72.2341 29.3729 72.1687 31.0378C72.1355 31.8825 72.1687 32.7296 71.1296 33.6446C70.8772 34.0243 71.6389 34.3033 71.8813 34.0243C72.4647 33.3532 72.7054 32.6135 72.7207 31.8353C72.7383 30.94 72.5339 29.8861 72.1076 28.6734C73.2298 29.4696 73.8981 30.2799 74.1125 31.1042C74.258 31.664 74.3418 32.8293 73.6572 33.5106C73.529 33.6382 73.5735 33.8359 73.7909 34.1037C73.9697 34.3115 74.1809 34.285 74.4244 34.0243Z" fill="#CBA465"/>
<path fill-rule="evenodd" clip-rule="evenodd" d="M59.1929 33.1361C58.6169 32.4012 58.4238 31.1766 58.6407 30.0944C58.7505 29.5469 58.9132 29.1086 59.0526 28.8735C59.5557 28.0256 60.2754 27.3677 61.2118 26.8998C61.8409 26.6839 62.2779 26.554 62.5229 26.5102C63.2615 26.3779 63.5682 26.4613 63.572 26.5102C63.5736 26.5303 63.6146 26.8409 63.572 27.4562C63.5147 28.2852 63.3514 29.5684 63.1679 30.5048C63.0249 31.2346 62.9182 32.0225 62.8764 32.7423C62.8621 32.9875 63.3495 33.1361 63.1679 33.5525C62.9863 33.9688 62.2156 33.977 62.1659 33.3719C62.0813 32.3415 62.4746 31.2429 62.6164 30.3275C62.7959 29.1693 62.9798 28.0601 63.1679 26.9999C61.361 26.9332 60.1397 27.7556 59.5041 29.467C59.3552 29.868 59.1948 30.5478 59.2904 31.239C59.3474 31.6511 59.4743 32.1063 59.8072 32.4012C60.0448 32.6116 60.1108 32.9352 60.0051 33.3719C59.7479 33.5775 59.4772 33.4989 59.1929 33.1361Z" fill="#CBA465"/>
<path fill-rule="evenodd" clip-rule="evenodd" d="M69.6121 33.1361C70.1881 32.4012 70.3812 31.1766 70.1643 30.0944C70.0545 29.5469 69.8918 29.1086 69.7523 28.8735C69.2493 28.0256 68.5296 27.3677 67.5932 26.8998C66.9641 26.6839 66.527 26.554 66.2821 26.5102C65.5435 26.3779 65.2368 26.4613 65.233 26.5102C65.2314 26.5303 65.1904 26.8409 65.233 27.4562C65.2903 28.2852 65.4536 29.5684 65.6371 30.5048C65.7801 31.2346 65.8868 32.0225 65.9286 32.7423C65.9428 32.9875 65.3775 33.1504 65.5591 33.5667C65.7407 33.983 66.5894 33.977 66.6391 33.372C66.7237 32.3415 66.3304 31.2429 66.1886 30.3275C66.0091 29.1693 65.8252 28.0601 65.6371 26.9999C67.444 26.9332 68.6653 27.7556 69.3009 29.467C69.4498 29.868 69.6102 30.5478 69.5146 31.239C69.4576 31.6511 69.3307 32.1063 68.9978 32.4012C68.7602 32.6116 68.6942 32.9352 68.7999 33.372C69.0571 33.5775 69.3278 33.4989 69.6121 33.1361Z" fill="#CBA465"/>
<path fill-rule="evenodd" clip-rule="evenodd" d="M64.1248 23.7374C63.6961 23.8529 63.3808 24.2428 63.3808 24.7059C63.3808 25.26 63.8321 25.7092 64.3889 25.7092C64.9456 25.7092 65.397 25.26 65.397 24.7059C65.397 24.2502 65.0917 23.8654 64.6735 23.7431V23.4893L65.2579 22.8251C65.4208 22.692 65.4739 22.5813 65.417 22.4928C65.3602 22.4043 65.2925 22.384 65.2139 22.432L64.6735 22.4928C64.6735 22.1997 64.5861 22.0514 64.4114 22.0477C64.2366 22.044 64.1493 22.1924 64.1493 22.4928L63.6391 22.432C63.5119 22.4241 63.4268 22.4435 63.384 22.4901C63.3411 22.5367 63.343 22.6079 63.3896 22.7035L64.1248 23.4893V23.7374Z" fill="#CBA465"/>
<path fill-rule="evenodd" clip-rule="evenodd" d="M55.1097 37.5979C55.9768 38.0041 56.7452 38.1057 57.4149 37.9026C58.0847 37.6995 58.707 37.2098 59.2819 36.4337C60.2296 37.1717 61.0654 37.5289 61.7893 37.5053C62.5132 37.4818 63.4084 37.0682 64.475 36.2646C65.4108 37.0639 66.2726 37.4814 67.0604 37.5172C67.8483 37.5529 68.7034 37.2133 69.6257 36.4984C70.2749 37.2882 70.8508 37.7563 71.3533 37.9026C71.8559 38.0488 72.6572 37.9816 73.7572 37.7008L72.5722 39.5405C70.9012 38.8402 68.1883 38.4841 64.4335 38.4722C60.6787 38.4604 57.9413 38.8165 56.2213 39.5405L55.1097 37.5979ZM64.45 36.8973L63.1975 37.6878H65.7025L64.45 36.8973ZM69.5693 37.2199L68.1986 37.7809L70.6655 38.2159L69.5693 37.2199ZM59.2983 37.2209L58.1353 38.138L60.6265 37.8762L59.2983 37.2209ZM55.9881 38.4174L56.278 38.7568L56.8129 38.5362L55.9881 38.4174ZM72.8814 38.4174L72.0565 38.5362L72.5914 38.7568L72.8814 38.4174Z" fill="#CBA465"/>
<path fill-rule="evenodd" clip-rule="evenodd" d="M64.4805 41.9442C60.1277 41.9442 56.599 41.6039 56.599 41.1841C56.599 40.7644 60.1277 40.4241 64.4805 40.4241C68.8334 40.4241 72.362 40.7644 72.362 41.1841C72.362 41.6039 68.8334 41.9442 64.4805 41.9442ZM64.3889 41.4578C67.915 41.4578 70.7735 41.3489 70.7735 41.2145C70.7735 41.0802 67.915 40.9713 64.3889 40.9713C60.8627 40.9713 58.0043 41.0802 58.0043 41.2145C58.0043 41.3489 60.8627 41.4578 64.3889 41.4578Z" fill="#CBA465"/>
<path fill-rule="evenodd" clip-rule="evenodd" d="M56.3258 39.89C57.8411 39.1668 60.5493 38.8173 64.4505 38.8415C68.3516 38.8657 71.0599 39.2152 72.5752 39.89V40.8826C70.5127 40.2018 67.7126 39.8615 64.175 39.8615C60.6375 39.8615 58.021 40.2018 56.3258 40.8826V39.89ZM63.6839 39.3346L64.3708 39.6858L65.0761 39.3346L64.3708 39.0122L63.6839 39.3346ZM57.4238 40.2418C57.5757 40.2418 57.6988 40.1193 57.6988 39.9682C57.6988 39.8171 57.5757 39.6946 57.4238 39.6946C57.272 39.6946 57.1489 39.8171 57.1489 39.9682C57.1489 40.1193 57.272 40.2418 57.4238 40.2418ZM59.9899 39.8162C60.1418 39.8162 60.2648 39.6937 60.2648 39.5426C60.2648 39.3914 60.1418 39.2689 59.9899 39.2689C59.8381 39.2689 59.715 39.3914 59.715 39.5426C59.715 39.6937 59.8381 39.8162 59.9899 39.8162ZM62.4338 39.6338C62.5856 39.6338 62.7087 39.5113 62.7087 39.3601C62.7087 39.209 62.5856 39.0865 62.4338 39.0865C62.2819 39.0865 62.1589 39.209 62.1589 39.3601C62.1589 39.5113 62.2819 39.6338 62.4338 39.6338ZM66.4051 39.6946C66.5569 39.6946 66.68 39.5721 66.68 39.4209C66.68 39.2698 66.5569 39.1473 66.4051 39.1473C66.2532 39.1473 66.1301 39.2698 66.1301 39.4209C66.1301 39.5721 66.2532 39.6946 66.4051 39.6946ZM68.9101 39.877C69.0619 39.877 69.185 39.7545 69.185 39.6034C69.185 39.4522 69.0619 39.3297 68.9101 39.3297C68.7582 39.3297 68.6351 39.4522 68.6351 39.6034C68.6351 39.7545 68.7582 39.877 68.9101 39.877ZM71.3539 40.3026C71.5058 40.3026 71.6289 40.1801 71.6289 40.029C71.6289 39.8779 71.5058 39.7554 71.3539 39.7554C71.2021 39.7554 71.079 39.8779 71.079 40.029C71.079 40.1801 71.2021 40.3026 71.3539 40.3026ZM58.7069 39.9378C58.825 39.9378 58.9207 39.8425 58.9207 39.725C58.9207 39.6074 58.825 39.5121 58.7069 39.5121C58.5888 39.5121 58.493 39.6074 58.493 39.725C58.493 39.8425 58.5888 39.9378 58.7069 39.9378ZM61.2729 39.6946C61.391 39.6946 61.4868 39.5993 61.4868 39.4817C61.4868 39.3642 61.391 39.2689 61.2729 39.2689C61.1548 39.2689 61.0591 39.3642 61.0591 39.4817C61.0591 39.5993 61.1548 39.6946 61.2729 39.6946ZM67.5659 39.6946C67.684 39.6946 67.7798 39.5993 67.7798 39.4817C67.7798 39.3642 67.684 39.2689 67.5659 39.2689C67.4478 39.2689 67.3521 39.3642 67.3521 39.4817C67.3521 39.5993 67.4478 39.6946 67.5659 39.6946ZM70.132 39.9986C70.2501 39.9986 70.3458 39.9033 70.3458 39.7858C70.3458 39.6682 70.2501 39.573 70.132 39.573C70.0139 39.573 69.9182 39.6682 69.9182 39.7858C69.9182 39.9033 70.0139 39.9986 70.132 39.9986Z" fill="#CBA465"/>
<path fill-rule="evenodd" clip-rule="evenodd" d="M54.3776 34.0243C53.8671 33.4777 53.8329 32.3247 54.0021 31.4255C54.0877 30.9705 54.2842 30.5793 54.3776 30.3669C54.6903 29.6558 55.538 28.9697 56.9206 28.3086C57.1983 28.2477 57.3394 28.2477 57.3439 28.3086C57.3467 28.3478 56.5679 29.3729 56.6333 31.0378C56.6664 31.8825 56.6333 32.7296 57.6724 33.6446C57.9247 34.0243 57.1631 34.3033 56.9206 34.0243C56.3373 33.3532 56.0965 32.6135 56.0812 31.8353C56.0637 30.94 56.268 29.8861 56.6944 28.6734C55.5722 29.4696 54.9039 30.2799 54.6895 31.1042C54.5439 31.664 54.4602 32.8293 55.1447 33.5106C55.273 33.6382 55.2284 33.8359 55.0111 34.1037C54.8323 34.3115 54.6211 34.285 54.3776 34.0243Z" fill="#CBA465"/>
<path fill-rule="evenodd" clip-rule="evenodd" d="M61.1252 54.5735H60.3114L59.7527 52.6729H57.882L57.3194 54.5735H56.5173L58.8173 46.6667L61.1252 54.5735ZM59.4144 51.8115L58.7905 49.7799L58.1628 51.8115H59.4144Z" fill="#333333"/>
<path fill-rule="evenodd" clip-rule="evenodd" d="M56.8205 74.4254C56.1839 74.7741 55.5585 74.9484 54.9443 74.9484C53.7319 74.9484 52.7714 74.5974 52.0628 73.8953C51.3543 73.1932 51 72.2569 51 71.0863C51 69.9348 51.3871 68.9961 52.1612 68.27C52.9066 67.5727 53.8374 67.2241 54.9539 67.2241C55.68 67.2241 56.299 67.3904 56.8109 67.7231V68.8074C56.2766 68.3148 55.6241 68.0685 54.8531 68.0685C54.0214 68.0685 53.332 68.3356 52.785 68.8697C52.2124 69.4295 51.9261 70.1683 51.9261 71.0863C51.9261 72.017 52.2124 72.7606 52.785 73.3172C53.3256 73.8417 54.0118 74.104 54.8435 74.104C55.5825 74.104 56.2414 73.8449 56.8205 73.3268V74.4254Z" fill="#333333"/>
<path fill-rule="evenodd" clip-rule="evenodd" d="M65.9149 74.8269H64.9066L63.4291 71.6887H63.3134V74.8269H62.5197V67.4067H63.4948C64.0551 67.4067 64.6546 67.6702 64.973 68.0371C65.2915 68.4039 65.4508 68.8389 65.4508 69.5021C65.4508 70.0339 65.4279 70.247 65.2222 70.6219C65.0033 71.0224 64.7001 71.2674 64.3127 71.5173L65.9149 74.8269ZM64.7331 69.5143C64.7331 68.63 64.0973 68.1879 63.7268 68.1879H63.3467V70.8743H63.7826C64.0973 70.8743 64.7331 70.421 64.7331 69.5143Z" fill="#333333"/>
<path fill-rule="evenodd" clip-rule="evenodd" d="M69.4314 74.8269H66.2787V67.4067H67.2048V73.9811H69.4314V74.8269Z" fill="#333333"/>
<path fill-rule="evenodd" clip-rule="evenodd" d="M76.7676 71.0863C76.7676 72.1322 76.3847 73.0373 75.6189 73.8017C74.8531 74.5662 73.9425 74.9484 72.8873 74.9484C71.8321 74.9484 70.9216 74.5662 70.1558 73.8017C69.3899 73.0373 69.007 72.1322 69.007 71.0863C69.007 70.0404 69.3899 69.1352 70.1558 68.3708C70.9216 67.6063 71.8321 67.2241 72.8873 67.2241C73.9425 67.2241 74.8531 67.6063 75.6189 68.3708C76.3847 69.1352 76.7676 70.0404 76.7676 71.0863ZM75.8565 71.0805C75.8565 70.2361 75.5712 69.5252 75.0004 68.9479C74.4296 68.3706 73.7285 68.0819 72.8971 68.0819C72.0658 68.0819 71.3655 68.3706 70.7963 68.9479C70.2271 69.5252 69.9426 70.2361 69.9426 71.0805C69.9426 71.9249 70.2271 72.6357 70.7963 73.213C71.3655 73.7904 72.0658 74.079 72.8971 74.079C73.7285 74.079 74.4296 73.7904 75.0004 73.213C75.5712 72.6357 75.8565 71.9249 75.8565 71.0805Z" fill="#333333"/>
<path fill-rule="evenodd" clip-rule="evenodd" d="M61.9133 74.766H61.0996L60.5409 72.9093H58.6702L58.1076 74.766H57.3055L59.6055 67.0417L61.9133 74.766ZM60.2025 72.0678L59.5787 70.083L58.9509 72.0678H60.2025Z" fill="#333333"/>
<path fill-rule="evenodd" clip-rule="evenodd" d="M55.9716 54.5736H54.8201L52.6056 51.3582H52.1923V54.5736H51.2425V46.9709H52.7041C53.5439 46.9709 54.2025 47.1589 54.6799 47.5347C55.1572 47.9106 55.3959 48.4383 55.3959 49.1178C55.3959 49.6627 55.2417 50.1272 54.9333 50.5113C54.6052 50.9216 54.1508 51.1727 53.5702 51.2647L55.9716 54.5736ZM54.5202 49.1303C54.5202 48.2243 53.8575 47.7713 52.5321 47.7713H52.2023V50.5238H52.6157C53.8854 50.5238 54.5202 50.0593 54.5202 49.1303Z" fill="#333333"/>
<path fill-rule="evenodd" clip-rule="evenodd" d="M66.2787 50.7723C66.2787 51.9507 65.8139 52.8831 65.1221 53.5568C64.4303 54.2305 63.8814 54.3335 63.1723 54.4935L61.6708 54.5736V46.9709C62.1316 46.9811 62.4643 47.0043 62.6691 47.0406C63.9028 47.2591 64.7238 47.6307 65.1319 47.9951C65.8964 48.6779 66.2787 49.6036 66.2787 50.7723ZM65.3448 50.7762C65.3448 49.8373 65.04 49.1151 64.4303 48.6096C64.0238 48.2726 63.422 48.0198 62.6247 47.8513V53.7207C63.3667 53.6147 63.9677 53.3644 64.4278 52.9698C65.1181 52.3779 65.3448 51.738 65.3448 50.7762Z" fill="#333333"/>
<path fill-rule="evenodd" clip-rule="evenodd" d="M68.1582 54.5736H67.1881V46.9709H68.1582V54.5736Z" fill="#333333"/>
<path fill-rule="evenodd" clip-rule="evenodd" d="M76.8889 50.8025C76.8889 51.8731 76.497 52.7996 75.7132 53.5821C74.9294 54.3646 73.9976 54.7559 72.9176 54.7559C71.8377 54.7559 70.9058 54.3646 70.1221 53.5821C69.3383 52.7996 68.9464 51.8731 68.9464 50.8025C68.9464 49.7319 69.3383 48.8053 70.1221 48.0229C70.9058 47.2404 71.8377 46.8491 72.9176 46.8491C73.9976 46.8491 74.9294 47.2404 75.7132 48.0229C76.497 48.8053 76.8889 49.7319 76.8889 50.8025ZM75.9565 50.7966C75.9565 49.9322 75.6644 49.2046 75.0802 48.6136C74.4961 48.0227 73.7786 47.7272 72.9277 47.7272C72.0768 47.7272 71.3601 48.0227 70.7776 48.6136C70.1951 49.2046 69.9039 49.9322 69.9039 50.7966C69.9039 51.6609 70.1951 52.3885 70.7776 52.9795C71.3601 53.5705 72.0768 53.8659 72.9277 53.8659C73.7786 53.8659 74.4961 53.5705 75.0802 52.9795C75.6644 52.3885 75.9565 51.6609 75.9565 50.7966Z" fill="#333333"/>
<path fill-rule="evenodd" clip-rule="evenodd" d="M57.8512 64.113H57.0668L56.4046 60.1424L54.5165 64.2439L52.6285 60.1424L51.9663 64.113H51.1819L52.3053 57.8577L54.5165 62.5541L56.7278 57.8577L57.8512 64.113Z" fill="#333333"/>
<path fill-rule="evenodd" clip-rule="evenodd" d="M64.7023 61.0508C64.7023 61.9155 64.3882 62.6638 63.76 63.2959C63.1318 63.9279 62.3849 64.2439 61.5193 64.2439C60.6537 64.2439 59.9067 63.9279 59.2785 63.2959C58.6503 62.6638 58.3362 61.9155 58.3362 61.0508C58.3362 60.186 58.6503 59.4377 59.2785 58.8057C59.9067 58.1737 60.6537 57.8577 61.5193 57.8577C62.3849 57.8577 63.1318 58.1737 63.76 58.8057C64.3882 59.4377 64.7023 60.186 64.7023 61.0508ZM63.9549 61.046C63.9549 60.3479 63.7208 59.7601 63.2526 59.2828C62.7844 58.8055 62.2093 58.5669 61.5273 58.5669C60.8453 58.5669 60.2709 58.8055 59.804 59.2828C59.3371 59.7601 59.1036 60.3479 59.1036 61.046C59.1036 61.7441 59.3371 62.3318 59.804 62.8091C60.2709 63.2864 60.8453 63.5251 61.5273 63.5251C62.2093 63.5251 62.7844 63.2864 63.2526 62.8091C63.7208 62.3318 63.9549 61.7441 63.9549 61.046Z" fill="#333333"/>
<path fill-rule="evenodd" clip-rule="evenodd" d="M72.8267 58.7403H71.327V64.1829H70.5673V58.7403H69.0677V58.04H72.8267V58.7403Z" fill="#333333"/>
<path fill-rule="evenodd" clip-rule="evenodd" d="M76.4038 58.7403H73.8893V60.459H76.3212V61.1592H73.8893V63.4827H76.396V64.1829H73.1298V58.04H76.4038V58.7403Z" fill="#333333"/>
<path fill-rule="evenodd" clip-rule="evenodd" d="M68.4614 64.2439L65.9516 60.4636V64.113H65.248V57.8577L67.7577 61.8687V57.9886H68.4614V64.2439Z" fill="#333333"/>
</g>
<defs>
<clipPath id="clip0">
<rect width="25.8889" height="53" fill="white" transform="translate(51 22)"/>
</clipPath>
</defs>
</svg>
