<svg width="128" height="97" viewBox="0 0 128 97" fill="none" xmlns="http://www.w3.org/2000/svg">
<mask id="mask0" mask-type="alpha" maskUnits="userSpaceOnUse" x="0" y="0" width="128" height="97">
<rect width="128" height="97" fill="#C4C4C4"/>
</mask>
<g mask="url(#mask0)">
</g>
<path fill-rule="evenodd" clip-rule="evenodd" d="M78.023 57.6824L76.4173 60.0424V52.4858H74.3289V69.8545H76.4173V63.3968L78.023 61.0671V69.8545H80.114V52.4858H78.023V57.6824Z" fill="#424CA0"/>
<path d="M61.9238 61.2789H60.321V55.8043C60.321 55.1626 60.4647 54.6036 61.1674 54.6036H61.9267L61.9238 61.2789ZM63.3912 52.4858H61.1754C59.4613 52.4858 58.3711 53.7636 58.2571 55.9062C58.2571 56.0824 58.2409 56.2449 58.2409 56.3991V69.8545H60.3265V63.3968H61.9292V69.849H64.0205V53.1275C64.0212 52.9576 63.9552 52.7943 63.8372 52.6739C63.7189 52.5535 63.5584 52.4858 63.3912 52.4858Z" fill="#424CA0"/>
<path d="M85.6089 66.7619C85.587 67.1611 85.4462 67.8276 84.7464 67.8276C84.0466 67.8276 83.9 67.1586 83.881 66.7619C83.881 66.605 83.881 55.7298 83.881 55.5756C83.9029 55.1763 84.0437 54.5044 84.7464 54.5044C85.4488 54.5044 85.5896 55.1763 85.6115 55.5729C85.6115 55.7519 85.6141 66.4699 85.6089 66.7619ZM84.7464 52.3508C83.0324 52.3508 81.9393 53.6286 81.8255 55.7712C81.8255 55.9474 81.8091 56.1071 81.8091 56.2641V66.1917C81.8091 68.5657 82.8941 69.984 84.7409 69.984C86.455 69.984 87.5452 68.7033 87.659 66.5636C87.659 66.3874 87.6754 66.2276 87.6754 66.0707V56.1429C87.6754 53.7663 86.5823 52.3508 84.7464 52.3508Z" fill="#424CA0"/>
<path d="M53.2425 54.5926H54.8318V56.7957C54.8312 57.6691 54.545 58.5176 54.0182 59.2081L53.2452 60.2023L53.2425 54.5926ZM51.1542 53.1247V69.8519H53.2398V63.3746L55.6535 60.2571C56.4719 59.1918 56.9175 57.8798 56.9201 56.5286V52.4858H51.7861C51.6187 52.4851 51.458 52.5521 51.3394 52.672C51.2208 52.7919 51.1542 52.9548 51.1542 53.1247Z" fill="#424CA0"/>
<path d="M70.0872 67.7202H68.0262C68.3127 65.4653 68.4632 63.1946 68.4764 60.9211V55.807C68.4764 55.1653 68.6173 54.6063 69.3199 54.6063H70.0847L70.0872 67.7202ZM72.173 67.7202V54.1106V53.1275C72.173 52.7731 71.89 52.4858 71.5411 52.4858H69.3305C67.6139 52.4858 66.5237 53.7636 66.4099 55.9062C66.4099 56.0824 66.3935 56.2449 66.3935 56.3991V60.9211C66.3935 63.1985 66.0137 67.0181 65.9407 67.7202H64.9534V69.8519H73.2767V67.7202H72.173Z" fill="#424CA0"/>
<path fill-rule="evenodd" clip-rule="evenodd" d="M83.0069 45.8198V42.9062L83.8611 41.8047C84.3299 42.2094 84.6014 42.8019 84.6043 43.4267V49.3916H86.6926V43.256C86.6923 42.0545 86.1633 40.916 85.2497 40.1523L85.1764 40.089L85.4233 39.7668C86.2427 38.701 86.6878 37.3875 86.6872 36.0353V32.0063H84.5988V36.3272C84.5991 37.2008 84.3129 38.0496 83.7852 38.7396L83.015 39.7337V32.0063H80.9266V49.3751H83.004V45.8198" fill="#424CA0"/>
<path fill-rule="evenodd" clip-rule="evenodd" d="M100.817 34.1269V32.0063H96.5483C96.2003 32.0079 95.9193 32.2947 95.9193 32.648V48.7334C95.9183 48.9034 95.9845 49.0666 96.1026 49.187C96.2206 49.3074 96.3811 49.3751 96.5483 49.3751H100.817V47.2574H98.0047V39.6208H100.695V37.5003H98.0047V34.1269H100.817Z" fill="#424CA0"/>
<path fill-rule="evenodd" clip-rule="evenodd" d="M78.5263 48.4661C79.0527 47.7969 79.3213 46.8909 79.3213 45.7646V43.8369H77.2573V45.8169C77.2853 46.2347 77.1911 46.6515 76.9859 47.0149C76.845 47.2439 76.5958 47.3809 76.3295 47.3756C76.0681 47.388 75.8195 47.2592 75.6761 47.0369C75.4799 46.6788 75.3937 46.2692 75.4291 45.861V35.4706C75.3944 35.0633 75.4802 34.6547 75.6761 34.2974C75.8221 34.0753 76.0723 33.9476 76.335 33.9614C76.601 33.9573 76.8496 34.094 76.9914 34.3222C77.1965 34.6865 77.2908 35.1043 77.2625 35.5229V37.5002H79.3264V35.5725C79.3264 34.4489 79.0553 33.5401 78.5318 32.8709C77.9925 32.2053 77.1882 31.8196 76.3392 31.8196C75.4902 31.8196 74.6859 32.2053 74.1463 32.8709C73.6202 33.5373 73.3546 34.4489 73.3546 35.5725V45.7618C73.3546 46.8882 73.6257 47.7969 74.1463 48.4634C74.6859 49.129 75.4902 49.5147 76.3392 49.5147C77.1882 49.5147 77.9925 49.129 78.5318 48.4634" fill="#424CA0"/>
<path d="M92.1358 46.4861C92.114 46.891 91.9676 47.5684 91.2569 47.5684C90.5465 47.5684 90.4028 46.8882 90.3809 46.4889C90.3809 46.3264 90.3809 35.231 90.3809 35.0741C90.4028 34.6693 90.5465 33.9891 91.2598 33.9891C91.9731 33.9891 92.114 34.6693 92.1358 35.0713C92.1358 35.2641 92.1384 46.2108 92.1358 46.4861ZM91.2598 31.8135C89.5239 31.8135 88.4202 33.1078 88.3064 35.2723C88.3064 35.4513 88.29 35.6138 88.29 35.7708V45.9354C88.29 48.3368 89.3966 49.7688 91.2518 49.7688C92.9874 49.7688 94.0885 48.4744 94.2052 46.3099C94.2052 46.1364 94.2213 45.9712 94.2213 45.8115V35.6579C94.2213 33.2675 93.1147 31.8245 91.2598 31.8245V31.8135Z" fill="#424CA0"/>
<path fill-rule="evenodd" clip-rule="evenodd" d="M68.9745 49.5154C69.8283 49.5399 70.6426 49.149 71.1658 48.4634C71.6919 47.7942 71.9605 46.8854 71.9605 45.7618V43.8341H69.8965V45.8142C69.9248 46.2319 69.8303 46.6488 69.6254 47.0121C69.4842 47.2412 69.235 47.3781 68.9691 47.3728C68.7079 47.3858 68.4597 47.2581 68.3153 47.0369C68.1191 46.6788 68.0332 46.2692 68.0686 45.861V35.4706C68.0336 35.0633 68.1198 34.6547 68.3153 34.2974C68.4613 34.0753 68.7118 33.9476 68.9745 33.9614C69.2402 33.9573 69.4887 34.094 69.6306 34.3222C69.8357 34.6865 69.9303 35.1043 69.902 35.5229V37.5002H71.9605V35.5725C71.9605 34.4489 71.6894 33.5401 71.1658 32.8709C70.6265 32.2053 69.8219 31.8196 68.9729 31.8196C68.1239 31.8196 67.3196 32.2053 66.7803 32.8709C66.2542 33.5373 65.9883 34.4489 65.9883 35.5725V45.7618C65.9883 46.8882 66.2597 47.7969 66.7803 48.4634C67.3045 49.1495 68.1198 49.5403 68.9745 49.5154Z" fill="#424CA0"/>
<path d="M53.5181 34.1158H55.1074V36.3189C55.1078 37.1925 54.8215 38.0414 54.2938 38.7313L53.5181 39.7337V34.1158ZM51.4298 32.648V49.3751H53.5181V42.9062L55.9265 39.7778C56.748 38.7127 57.1948 37.3991 57.1957 36.0463V32.0063H52.0617C51.7127 32.0063 51.4298 32.2936 51.4298 32.648Z" fill="#424CA0"/>
<path d="M62.3296 47.1114C62.3296 47.2543 62.2158 47.3702 62.0749 47.3702H60.7432C60.6728 47.3748 60.6037 47.3496 60.5522 47.3005C60.5011 47.2515 60.4718 47.183 60.4721 47.1114V46.1062C60.4718 46.0346 60.5011 45.9661 60.5522 45.9171C60.6037 45.868 60.6728 45.8428 60.7432 45.8473H62.3296V47.1114ZM62.2023 32.0063V39.7337L61.4321 38.7396C60.9044 38.0496 60.6181 37.2008 60.6185 36.3272V32.0063H58.5301V36.0353C58.5311 37.3881 58.9779 38.7017 59.7994 39.7668L62.3351 43.0329V43.8343H60.3609C59.3478 43.8343 58.5262 44.6673 58.5247 45.6959V47.5135C58.5262 48.5421 59.3478 49.3751 60.3609 49.3751H62.4573C63.4696 49.3751 64.2907 48.5416 64.2907 47.5135V32.0063H62.2023Z" fill="#424CA0"/>
<path d="M40.3827 63.3538C40.6947 61.7246 41.5798 60.3881 42.4981 59.0616C43.1127 58.1733 43.6296 57.2383 43.6244 56.1082C43.6171 54.8629 42.8569 54.1365 41.6224 54.2122C41.3988 54.2247 41.1783 54.2776 40.9558 54.3025C40.5034 54.3544 40.2912 54.6055 40.157 55.0435C39.5632 56.9862 38.8207 58.8634 37.4083 60.389C35.7995 62.1232 33.9171 62.1562 32.2635 60.4606C30.9116 59.0752 30.1773 57.3369 29.5897 55.5374C28.2544 51.4611 27.8956 47.2561 28.0245 43.0003C28.1389 39.2156 28.6725 35.5015 30.0941 31.9586C30.586 30.733 31.1903 29.5645 32.0899 28.5828C33.0258 27.5637 34.1137 26.8798 35.5801 27.2783C36.4495 27.5149 37.1047 28.0857 37.6601 28.7623C38.9777 30.3542 39.7067 32.2346 40.2715 34.1856C41.0566 36.8838 41.4227 39.6546 41.5527 42.4596C41.7344 45.9829 41.4523 49.5148 40.7134 52.9648C40.7024 53.0215 40.719 53.0801 40.7582 53.1226C42.3389 49.6139 42.6125 45.8697 42.7082 41.9148C43.096 42.3299 43.4029 42.6412 43.6941 42.9619C46.9451 46.5764 47.6564 50.7388 46.3679 55.3299C45.8271 57.258 44.8079 58.9288 43.6025 60.5103C43.174 61.0966 42.7822 61.7086 42.4294 62.343C42.261 62.6337 42.1892 62.9793 42.0415 63.3807H44.9212C45.3716 63.3807 45.8229 63.3695 46.2732 63.39C46.6528 63.4077 46.9576 63.554 46.9576 64.0036C46.9576 65.8879 46.9548 67.7728 46.9492 69.6581C46.9388 69.7191 46.9206 69.7784 46.8951 69.8346H33.3618C33.2304 68.9377 33.7991 68.0867 34.6794 67.863C35.1069 67.759 35.1765 67.562 35.1682 67.1843C35.1474 66.2159 35.1578 65.2477 35.163 64.2786C35.163 63.5675 35.3419 63.3849 36.0522 63.3798C37.3865 63.3714 38.7208 63.3798 40.0551 63.3798C40.1581 63.3807 40.26 63.3641 40.3827 63.3538ZM36.4745 35.3074C35.6612 35.3385 35.2192 35.8169 34.9946 36.3981C34.5515 37.5511 34.0929 38.7216 33.8568 39.9275C33.1662 43.4466 33.1569 46.9988 33.6363 50.5469C33.8589 52.1907 34.1678 53.8241 34.9779 55.305C35.2629 55.8238 35.6019 56.3707 36.281 56.3552C36.9279 56.3406 37.3127 55.829 37.5186 55.2998C37.9346 54.2288 38.3672 53.1433 38.6064 52.0236C39.2897 48.8232 39.2824 45.5781 39.0224 42.3289C38.8248 39.8071 38.2445 37.385 37.0891 35.1269C36.5805 34.1234 35.9566 33.1821 35.3835 32.2066L35.2691 32.2751L36.4745 35.3074Z" fill="#ED1C24"/>
<path fill-rule="evenodd" clip-rule="evenodd" d="M43.9185 32.0701C42.7285 32.0701 41.7639 33.0327 41.7639 34.2201C41.7639 35.4075 42.7285 36.3701 43.9185 36.3701C45.1085 36.3701 46.0731 35.4075 46.0731 34.2201C46.0731 33.0327 45.1085 32.0701 43.9185 32.0701ZM42.2141 34.2201C42.2141 33.2808 42.9772 32.5193 43.9185 32.5193C44.8598 32.5193 45.6229 33.2808 45.6229 34.2201C45.6229 35.1594 44.8598 35.9208 43.9185 35.9208C42.9772 35.9208 42.2141 35.1594 42.2141 34.2201Z" fill="#ED1C24"/>
<path d="M43.9697 34.4429H43.7179V35.1226H43.2527V33.1973H44.0121C44.2409 33.1973 44.4198 33.248 44.5488 33.3493C44.6778 33.4507 44.7423 33.594 44.7423 33.7791C44.7423 33.9131 44.7149 34.0242 44.6601 34.1123C44.6062 34.2005 44.5214 34.2719 44.4057 34.3266L44.8085 35.1028V35.1226H44.3102L43.9697 34.4429ZM43.7179 34.0846H44.0121C44.1004 34.0846 44.1667 34.0617 44.2109 34.0158C44.2559 33.9691 44.2784 33.9043 44.2784 33.8214C44.2784 33.7386 44.2559 33.6738 44.2109 33.627C44.1658 33.5794 44.0995 33.5556 44.0121 33.5556H43.7179V34.0846Z" fill="#ED1C24"/>
</svg>
