<svg width="45" height="57" viewBox="0 0 45 57" fill="none" xmlns="http://www.w3.org/2000/svg">
<path d="M30.8296 8.66287C32.9744 6.36674 34.4251 3.17888 34.028 0C30.9381 0.11027 27.1932 1.81379 24.9753 4.10972C22.9871 6.14229 21.2464 9.39077 21.711 12.5073C25.1589 12.7405 28.6813 10.9553 30.8296 8.66287ZM37.41 30.6163C37.3441 23.4895 43.0524 20.0667 43.3052 19.9013C40.096 15.0617 35.0981 14.3995 33.3181 14.3248C29.0623 13.878 25.0201 16.9021 22.8594 16.9021C20.7076 16.9021 17.3791 14.3834 13.8495 14.4511C9.20936 14.5275 4.93385 17.2295 2.55072 21.5119C-2.26951 30.1269 1.31526 42.8887 6.01231 49.8766C8.30843 53.2975 11.0423 57.1351 14.6324 56.9963C18.0979 56.8575 19.4043 54.6914 23.5854 54.6914C27.7682 54.6914 28.9393 56.9963 32.5988 56.9269C36.3224 56.8575 38.6789 53.4401 40.9555 50.0084C43.5897 46.041 44.6756 42.1999 44.7377 42.006C44.6578 41.9596 37.4865 39.1385 37.41 30.6163Z" fill="#CCD0D2"/>
</svg>
