<svg width="158" height="54" viewBox="0 0 158 54" fill="none" xmlns="http://www.w3.org/2000/svg">
<path fill-rule="evenodd" clip-rule="evenodd" d="M1.38875 30.3268C-1.16534 24.329 -0.390518 18.0442 5.43002 10.4791C4.10375 13.0675 3.51793 15.9971 3.49693 19.2625C1.27721 23.0589 0.711026 26.6894 1.38875 30.3268ZM54.7508 16.7488C54.3474 15.9271 53.8604 15.1206 53.2852 14.3338C50.8014 10.9356 46.479 8.31305 41.3782 6.72714C37.0814 3.58559 32.2115 1.28132 27.429 0.410502C27.9704 0.388412 28.5123 0.377502 29.0528 0.377502C37.3895 0.377502 45.5514 2.96596 50.0844 7.65578C52.7048 10.3672 54.1964 13.4591 54.7508 16.7488Z" fill="#FAD51F"/>
<path fill-rule="evenodd" clip-rule="evenodd" d="M18.4639 50.8719C13.9295 49.0157 9.918 45.7768 6.97364 41.7481C4.09501 37.8088 2.08501 34.0645 1.38873 30.3268C2.84537 33.7471 5.38473 37.0749 8.68746 40.4924C8.8901 40.7019 9.09464 40.9081 9.30273 41.1121C11.6978 45.185 14.814 48.6181 18.4639 50.8719ZM55.2701 29.3371C55.2322 27.8008 55.0192 26.21 54.6142 24.5668C54.5877 24.4593 54.5604 24.353 54.5321 24.2455C55.0598 21.6873 55.158 19.1651 54.7508 16.7488C56.6904 20.7001 56.6951 25.0146 55.2701 29.3371Z" fill="#DC3371"/>
<path fill-rule="evenodd" clip-rule="evenodd" d="M9.30273 41.112C9.09464 40.908 8.8901 40.7018 8.68746 40.4924C5.38473 37.0748 2.84537 33.747 1.38874 30.3267C0.711009 26.6894 1.27719 23.0588 3.49692 19.2625C3.48137 21.6873 3.77728 24.2987 4.31264 27.0903C4.54501 30.1765 5.36564 33.2027 6.77728 35.9305C7.49482 37.737 8.3411 39.4765 9.30273 41.112ZM54.5321 24.2455C52.8447 17.8669 47.7406 11.3793 41.3782 6.72711C46.479 8.31302 50.8014 10.9356 53.2852 14.3337C53.8603 15.1206 54.3474 15.927 54.7508 16.7487C55.158 19.1651 55.0598 21.6873 54.5321 24.2455Z" fill="#FF2F93"/>
<path fill-rule="evenodd" clip-rule="evenodd" d="M28.2371 53.7393C24.6971 53.739 21.4066 52.689 18.4639 50.8719C21.1639 51.9772 24.0493 52.5925 27.0049 52.5925C31.6631 52.5928 36.4958 51.0647 41.0531 47.5187C42.5037 46.3901 43.8848 45.2098 45.1821 43.9869C49.8881 41.6259 53.13 37.9405 53.8355 32.7876C54.4091 31.6413 54.8901 30.489 55.2701 29.337C55.5572 40.9708 45.8111 49.4199 33.5659 52.9623C31.7375 53.4911 29.9585 53.7393 28.2371 53.7393ZM5.42999 10.479C7.40699 6.62048 11.0291 3.5223 16.8785 1.20766C18.924 0.399567 21.1066 0.0289307 23.3547 0.0289307C24.6946 0.0289307 26.0588 0.160931 27.429 0.410476C19.1604 0.74484 10.941 3.65048 6.12436 9.60002C5.88517 9.89512 5.6539 10.1878 5.42999 10.479Z" fill="#4FCF44"/>
<path fill-rule="evenodd" clip-rule="evenodd" d="M3.49695 19.2625C3.51795 15.9971 4.10377 13.0675 5.43004 10.479C5.65395 10.1877 5.88522 9.8951 6.1244 9.60001C10.941 3.65046 19.1605 0.744825 27.429 0.410461C32.2116 1.28128 37.0814 3.58555 41.3782 6.7271C41.0872 6.63682 40.7943 6.54982 40.4984 6.4661C37.1258 4.18882 33.267 2.7641 29.0918 2.71528C28.926 2.71337 28.7599 2.71228 28.5958 2.71228C16.8966 2.71228 9.52122 7.81855 6.22231 15.4751C5.12731 16.7591 4.22322 18.0202 3.49695 19.2625Z" fill="#4FCF44"/>
<path fill-rule="evenodd" clip-rule="evenodd" d="M27.0049 52.5925C24.0494 52.5925 21.1639 51.9772 18.4639 50.8718C14.814 48.618 11.6978 45.1849 9.30273 41.112C14.5598 46.2649 21.5405 49.5821 28.4847 49.5826C32.5827 49.5829 36.6668 48.4285 40.3794 45.8149C42.1014 45.3319 43.7127 44.724 45.1822 43.9868C43.8848 45.2097 42.5037 46.3901 41.0531 47.5186C36.4958 51.0646 31.6631 52.5927 27.0049 52.5925ZM53.8355 32.7876C53.8429 32.7338 53.8502 32.6787 53.8571 32.6247C54.0654 30.9671 54.009 29.1598 53.7128 27.2812C54.0496 26.2667 54.324 25.2535 54.5321 24.2455C54.5604 24.3529 54.5877 24.4593 54.6142 24.5668C55.0192 26.2099 55.2322 27.8008 55.2701 29.337C54.8902 30.489 54.4091 31.6413 53.8355 32.7876Z" fill="#5D18B1"/>
<path fill-rule="evenodd" clip-rule="evenodd" d="M28.4847 49.5826C21.5405 49.5821 14.5598 46.2649 9.30273 41.112C8.3411 39.4765 7.49483 37.737 6.77728 35.9305C9.81819 41.8069 15.6005 46.3001 24.1478 47.0367C25.7746 47.1769 27.3903 47.2481 28.9784 47.2481C33.0442 47.2481 36.9324 46.7817 40.3794 45.8149C36.6668 48.4285 32.5827 49.5829 28.4847 49.5826ZM53.7128 27.2812C52.5387 19.8311 47.5983 11.2607 40.4984 6.46613C40.7943 6.54985 41.0872 6.63685 41.3782 6.72713C47.7406 11.3793 52.8447 17.8669 54.5321 24.2455C54.324 25.2535 54.0496 26.2667 53.7128 27.2812ZM4.31265 27.0903C3.77728 24.2987 3.48138 21.6873 3.49692 19.2625C4.22319 18.0202 5.12728 16.7591 6.22228 15.4751C5.33074 17.5438 4.73701 19.7992 4.43619 22.1894C4.23138 23.8167 4.19019 25.4618 4.31265 27.0903Z" fill="#5E17B1"/>
<path fill-rule="evenodd" clip-rule="evenodd" d="M6.77732 35.9305C5.36568 33.2026 4.54505 30.1765 4.31268 27.0903C4.54041 28.2783 4.81177 29.4987 5.12077 30.7525C5.55605 32.5186 6.11159 34.2537 6.77732 35.9305Z" fill="#D9252A"/>
<path fill-rule="evenodd" clip-rule="evenodd" d="M6.22229 15.4751C9.5212 7.81855 16.8966 2.71228 28.5957 2.71228C28.7599 2.71228 28.926 2.71337 29.0918 2.71528C33.267 2.7641 37.1258 4.18883 40.4984 6.4661C37.1493 5.51892 33.4986 5.01001 29.8345 5.01001C22.4515 5.01001 15.0101 7.07428 9.83865 11.7777C8.45483 13.035 7.25374 14.2653 6.22229 15.4751Z" fill="#192A1B"/>
<path fill-rule="evenodd" clip-rule="evenodd" d="M45.1822 43.9868C48.8779 40.503 51.888 36.6804 53.8355 32.7875C53.13 37.9404 49.8881 41.6258 45.1822 43.9868Z" fill="#325E9C"/>
<path fill-rule="evenodd" clip-rule="evenodd" d="M40.3795 45.8149C41.5797 44.9697 42.7413 43.9721 43.8513 42.8119C48.4143 38.0433 51.9316 32.6479 53.7128 27.2812C54.009 29.1597 54.0654 30.9671 53.8571 32.6247C53.8502 32.6787 53.8429 32.7338 53.8355 32.7876C51.888 36.6805 48.8779 40.503 45.1822 43.9868C43.7127 44.724 42.1015 45.3319 40.3795 45.8149Z" fill="#0A0B09"/>
<path fill-rule="evenodd" clip-rule="evenodd" d="M28.9784 47.2481C27.3903 47.2481 25.7747 47.1769 24.1479 47.0367C15.6006 46.3001 9.81823 41.8069 6.77732 35.9305C6.11159 34.2537 5.55605 32.5186 5.12078 30.7525C4.81178 29.4987 4.54041 28.2783 4.31269 27.0903C4.19023 25.4618 4.23141 23.8167 4.43623 22.1894C4.73705 19.7992 5.33078 17.5437 6.22232 15.4751C7.25377 14.2653 8.45486 13.035 9.83868 11.7777C15.0101 7.07428 22.4515 5.01001 29.8345 5.01001C33.4986 5.01001 37.1493 5.51892 40.4984 6.4661C47.5983 11.2606 52.5387 19.8311 53.7128 27.2812C51.9317 32.6479 48.4143 38.0433 43.8513 42.8119C42.7413 43.9721 41.5798 44.9697 40.3795 45.8149C36.9325 46.7817 33.0442 47.2481 28.9784 47.2481Z" fill="#0A0B09"/>
<path d="M19.376 39V15.24H27.656C31.352 15.192 34.448 16.272 36.944 18.48C39.44 20.688 40.664 23.544 40.616 27.048C40.664 30.528 39.428 33.408 36.908 35.688C34.412 37.944 31.328 39.048 27.656 39H19.376ZM25.568 33.42H27.62C29.588 33.42 31.184 32.844 32.408 31.692C33.656 30.54 34.28 28.992 34.28 27.048C34.28 25.08 33.668 23.556 32.444 22.476C31.244 21.396 29.636 20.856 27.62 20.856H25.568V33.42Z" fill="white"/>
<path d="M71.8262 33V18.48H76.3802C78.7415 18.48 80.6482 19.1473 82.1002 20.482C83.5522 21.8167 84.2782 23.562 84.2782 25.718C84.2782 27.8447 83.5448 29.59 82.0782 30.954C80.6262 32.318 78.7268 33 76.3802 33H71.8262ZM74.1582 30.91H76.3582C78.0302 30.91 79.3648 30.4333 80.3622 29.48C81.3742 28.512 81.8802 27.258 81.8802 25.718C81.8802 24.1633 81.3815 22.924 80.3842 22C79.3868 21.0613 78.0448 20.592 76.3582 20.592H74.1582V30.91Z" fill="black"/>
<path d="M96.6286 28.358H88.5766C88.7233 29.238 89.1119 29.9347 89.7426 30.448C90.3879 30.9467 91.1726 31.196 92.0966 31.196C93.2406 31.196 94.2893 30.7707 95.2426 29.92L96.3426 31.504C95.1253 32.6627 93.6879 33.242 92.0306 33.242C90.3879 33.242 89.0093 32.7067 87.8946 31.636C86.7799 30.5507 86.2226 29.2087 86.2226 27.61C86.1933 26.0553 86.7359 24.7207 87.8506 23.606C88.9653 22.4767 90.2853 21.9267 91.8106 21.956C93.2333 21.956 94.4213 22.4327 95.3746 23.386C96.3279 24.3247 96.8046 25.498 96.8046 26.906C96.8046 27.3313 96.7459 27.8153 96.6286 28.358ZM88.6206 26.554H94.4946C94.4799 25.7473 94.2086 25.1093 93.6806 24.64C93.1526 24.156 92.4999 23.914 91.7226 23.914C90.9599 23.914 90.2926 24.156 89.7206 24.64C89.1633 25.1093 88.7966 25.7473 88.6206 26.554Z" fill="black"/>
<path d="M106.546 22.198H109.01L103.796 33.242H103.004L97.7678 22.198H100.232L103.4 29.348L106.546 22.198Z" fill="black"/>
<path d="M113.865 33V20.57H108.981V18.48H121.103V20.57H116.197V33H113.865Z" fill="black"/>
<path d="M128.299 22.198V24.244H127.595C126.657 24.244 125.894 24.508 125.307 25.036C124.721 25.564 124.427 26.2973 124.427 27.236V33H122.117V22.198H124.273V23.606C125.08 22.594 126.129 22.088 127.419 22.088C127.713 22.088 128.006 22.1247 128.299 22.198Z" fill="black"/>
<path d="M130.367 33V22.198H132.677V33H130.367ZM130.411 19.25C130.103 18.9567 129.949 18.5973 129.949 18.172C129.949 17.7467 130.103 17.3873 130.411 17.094C130.719 16.786 131.093 16.632 131.533 16.632C131.959 16.632 132.325 16.786 132.633 17.094C132.941 17.3873 133.095 17.7467 133.095 18.172C133.095 18.5973 132.941 18.9567 132.633 19.25C132.325 19.5433 131.959 19.69 131.533 19.69C131.093 19.69 130.719 19.5433 130.411 19.25Z" fill="black"/>
<path d="M135.336 27.588C135.307 26.048 135.864 24.7207 137.008 23.606C138.152 22.4767 139.501 21.9267 141.056 21.956C143.08 21.956 144.598 22.792 145.61 24.464L143.982 25.74C143.219 24.64 142.251 24.09 141.078 24.09C140.11 24.09 139.303 24.4273 138.658 25.102C138.013 25.7767 137.69 26.6053 137.69 27.588C137.69 28.5853 138.013 29.4213 138.658 30.096C139.303 30.7707 140.11 31.108 141.078 31.108C142.222 31.108 143.19 30.5653 143.982 29.48L145.61 30.734C145.126 31.526 144.488 32.142 143.696 32.582C142.904 33.022 142.024 33.242 141.056 33.242C139.457 33.242 138.101 32.692 136.986 31.592C135.886 30.492 135.336 29.1573 135.336 27.588Z" fill="black"/>
<path d="M148.157 33V16.5H150.467V33H148.157ZM153.261 26.95L157.991 33H155.219L150.533 26.928L154.757 22.198H157.617L153.261 26.95Z" fill="black"/>
</svg>
