<svg width="58" height="58" viewBox="0 0 58 58" fill="none" xmlns="http://www.w3.org/2000/svg">
<path fill-rule="evenodd" clip-rule="evenodd" d="M23.1882 8.23373C21.9019 8.73595 20.6555 9.29527 19.4623 9.9073C16.4074 11.4742 13.6988 13.3877 11.5501 15.5764C10.4767 16.6697 9.54353 17.8316 8.77589 19.0539C8.77588 19.0539 8.77587 19.0539 8.77587 19.0539C6.31758 22.9683 5.56371 27.4968 7.38533 32.3537C7.3516 31.9002 7.3275 31.4427 7.31281 30.9816C7.3275 31.4427 7.35164 31.9002 7.38536 32.3537C7.38939 32.3644 7.39344 32.3752 7.39752 32.386C7.40668 32.4103 7.41594 32.4348 7.42524 32.4592L7.44348 32.5068C8.04344 34.062 8.91069 35.6484 9.99054 37.2057C9.99055 37.2057 9.99056 37.2058 9.99057 37.2058L10.1015 37.3659C14.3304 43.466 17.6431 48.2445 25.2456 49.9156C28.9592 50.7319 35.343 49.2319 38.0961 47.8198C43.6434 44.9745 48.2924 40.2699 50.0314 34.0919C50.4973 32.4399 50.8383 30.8823 51.0611 29.4083C50.7869 27.2241 50.2036 24.9884 49.3388 22.7458C48.75 21.2188 48.0301 19.7392 47.1949 18.3374C46.4816 17.3681 45.7207 16.3868 44.9164 15.3903C43.7832 13.9866 42.5739 12.6568 41.3085 11.4214C36.3417 7.36463 29.9465 5.59515 23.1882 8.23373Z" fill="#5E20A7"/>
<path d="M38.7545 24.009L38.7479 23.9825C38.211 21.8122 35.7908 19.4835 33.5683 18.999L33.5432 18.9938C29.9483 18.308 26.3032 18.308 22.7091 18.9938L22.6833 18.999C20.4614 19.4835 18.0412 21.8122 17.5037 23.9825L17.4978 24.009C16.8341 27.0398 16.8341 30.1133 17.4978 33.1441L17.5037 33.1707C18.0183 35.2483 20.2583 37.47 22.3979 38.081V40.5036C22.3979 41.3804 23.4664 41.811 24.074 41.1783L26.5285 38.6269C27.0609 38.6567 27.5935 38.6733 28.1261 38.6733C29.9358 38.6733 31.7461 38.5022 33.5432 38.1593L33.5683 38.1542C35.7908 37.6697 38.211 35.3409 38.7479 33.1707L38.7545 33.1442C39.4182 30.1133 39.4182 27.0398 38.7545 24.009ZM36.8122 32.7046C36.4538 34.1205 34.6161 35.8807 33.1561 36.2059C31.2446 36.5693 29.318 36.7247 27.3934 36.6714C27.3551 36.6704 27.3183 36.6852 27.2916 36.7126C27.0185 36.993 25.4995 38.5523 25.4995 38.5523L23.5932 40.5087C23.4539 40.654 23.209 40.5551 23.209 40.3546V36.3414C23.209 36.2751 23.1617 36.2188 23.0966 36.206C23.0962 36.2059 23.0959 36.2059 23.0955 36.2058C21.6354 35.8806 19.7985 34.1204 19.4394 32.7045C18.8421 29.965 18.8421 27.1879 19.4394 24.4484C19.7985 23.0326 21.6354 21.2724 23.0955 20.9472C26.4338 20.3123 29.8185 20.3123 33.1561 20.9472C34.6169 21.2724 36.4538 23.0326 36.8122 24.4484C37.4101 27.188 37.4101 29.9651 36.8122 32.7046Z" fill="white"/>
<path d="M31.3024 34.557C31.0779 34.4889 30.864 34.4431 30.6653 34.3606C28.6067 33.5066 26.7121 32.4047 25.2114 30.7157C24.358 29.7552 23.6901 28.6708 23.1254 27.5232C22.8577 26.979 22.632 26.4135 22.402 25.8517C22.1923 25.3393 22.5012 24.81 22.8265 24.424C23.1317 24.0617 23.5244 23.7844 23.9498 23.5801C24.2818 23.4206 24.6093 23.5125 24.8517 23.7939C25.3759 24.4023 25.8573 25.0418 26.2472 25.747C26.4869 26.1807 26.4212 26.7109 25.9867 27.0061C25.8811 27.0778 25.7848 27.1621 25.6865 27.2431C25.6002 27.3141 25.519 27.3859 25.4599 27.482C25.3518 27.658 25.3466 27.8655 25.4162 28.0568C25.952 29.5292 26.8551 30.6742 28.3372 31.2909C28.5743 31.3896 28.8125 31.5045 29.0857 31.4726C29.5433 31.4192 29.6915 30.9173 30.0121 30.6551C30.3255 30.3988 30.726 30.3954 31.0636 30.609C31.4012 30.8227 31.7286 31.0522 32.0539 31.284C32.3733 31.5116 32.6913 31.7342 32.9859 31.9936C33.2691 32.2431 33.3667 32.5703 33.2072 32.9089C32.9152 33.5289 32.4903 34.0447 31.8773 34.374C31.7042 34.4668 31.4975 34.4969 31.3024 34.557C31.0779 34.4888 31.4975 34.4969 31.3024 34.557Z" fill="white"/>
<path d="M28.1318 22.8712C30.8244 22.9467 33.036 24.7337 33.51 27.3957C33.5907 27.8493 33.6195 28.3131 33.6554 28.7735C33.6705 28.9671 33.5609 29.1511 33.3519 29.1536C33.136 29.1562 33.0389 28.9756 33.0249 28.782C32.9972 28.3988 32.9779 28.014 32.9251 27.634C32.6464 25.6281 31.0469 23.9687 29.0504 23.6126C28.7499 23.559 28.4424 23.5449 28.1381 23.5129C27.9457 23.4927 27.6937 23.4811 27.6511 23.2419C27.6153 23.0414 27.7846 22.8818 27.9755 22.8715C28.0274 22.8687 28.0796 22.871 28.1318 22.8712C30.8244 22.9467 28.0796 22.871 28.1318 22.8712Z" fill="white"/>
<path d="M32.2238 28.1759C32.2194 28.2095 32.217 28.2886 32.1973 28.3631C32.1259 28.6334 31.716 28.6672 31.6216 28.3944C31.5937 28.3134 31.5895 28.2213 31.5893 28.1342C31.5884 27.5638 31.4644 26.9941 31.1768 26.4979C30.8812 25.9879 30.4295 25.5592 29.8998 25.2997C29.5794 25.1429 29.233 25.0454 28.8819 24.9873C28.7285 24.9619 28.5734 24.9465 28.4192 24.9251C28.2323 24.8991 28.1326 24.78 28.1414 24.5959C28.1497 24.4233 28.2758 24.2992 28.4638 24.3098C29.0818 24.3449 29.6786 24.4785 30.228 24.7694C31.3452 25.361 31.9833 26.2949 32.1696 27.5419C32.178 27.5984 32.1916 27.6543 32.1959 27.711C32.2064 27.8511 32.213 27.9912 32.2238 28.1759C32.2194 28.2095 32.213 27.9912 32.2238 28.1759Z" fill="white"/>
<path d="M30.5489 28.1107C30.3237 28.1147 30.2031 27.99 30.1799 27.7835C30.1637 27.6394 30.151 27.4935 30.1166 27.3534C30.0489 27.0775 29.9022 26.8217 29.6701 26.6526C29.5605 26.5728 29.4363 26.5146 29.3063 26.4771C29.141 26.4293 28.9694 26.4425 28.8045 26.4021C28.6255 26.3582 28.5264 26.2132 28.5546 26.0452C28.5802 25.8924 28.7289 25.7731 28.896 25.7851C29.9399 25.8605 30.686 26.4002 30.7925 27.6292C30.8 27.7159 30.8089 27.8076 30.7896 27.8905C30.7567 28.0326 30.6515 28.1037 30.5489 28.1107C30.3237 28.1147 30.6515 28.1037 30.5489 28.1107Z" fill="white"/>
</svg>
