<svg width="41" height="41" viewBox="0 0 41 41" fill="none" xmlns="http://www.w3.org/2000/svg">
<path d="M33.3125 41H7.6875C3.44148 41 0 37.5585 0 33.3125V7.6875C0 3.44148 3.44148 0 7.6875 0H33.3125C37.5585 0 41 3.44148 41 7.6875V33.3125C41 37.5585 37.5585 41 33.3125 41Z" fill="#C1E9FF"/>
<path d="M30.4977 7.53064H10.5021C8.86316 7.53064 7.53052 8.86328 7.53052 10.5023V30.4962C7.53052 32.1368 8.86316 33.4694 10.5021 33.4694H30.4961C32.1367 33.4694 33.4693 32.1368 33.4693 30.4978V10.5023C33.4693 8.86328 32.1367 7.53064 30.4977 7.53064ZM20.4999 12.934C21.0964 12.934 21.5812 13.4173 21.5812 14.0153C21.5812 14.6134 21.0964 15.0966 20.4999 15.0966C19.9034 15.0966 19.4186 14.6134 19.4186 14.0153C19.4186 13.4173 19.9034 12.934 20.4999 12.934ZM22.9317 28.066H18.0681C17.4717 28.066 16.9868 27.5812 16.9868 26.9847C16.9868 26.3883 17.4717 25.9034 18.0681 25.9034H19.4186V19.4187H18.608C18.0115 19.4187 17.5267 18.9339 17.5267 18.3374C17.5267 17.7409 18.0115 17.2577 18.608 17.2577H20.4999C21.0964 17.2577 21.5812 17.7425 21.5812 18.339V25.905H22.9317C23.5281 25.905 24.013 26.3898 24.013 26.9863C24.013 27.5812 23.5281 28.066 22.9317 28.066Z" fill="#00A3FF"/>
</svg>
